<?xml version="1.0" encoding="UTF-8"?>
<!DOCTYPE svg PUBLIC "-//W3C//DTD SVG 1.1//EN" "http://www.w3.org/Graphics/SVG/1.1/DTD/svg11.dtd">
<svg xmlns="http://www.w3.org/2000/svg" version="1.1" width="500px" height="500px" style="shape-rendering:geometricPrecision; text-rendering:geometricPrecision; image-rendering:optimizeQuality; fill-rule:evenodd; clip-rule:evenodd" xmlns:xlink="http://www.w3.org/1999/xlink">
<g><path style="opacity:1" fill="#10be9a" d="M 309.5,34.5 C 310.674,35.5137 311.34,36.847 311.5,38.5C 311.12,40.698 311.787,42.3646 313.5,43.5C 313.054,46.0101 313.72,48.0101 315.5,49.5C 315.054,52.0101 315.72,54.0101 317.5,55.5C 317.171,58.2282 317.837,60.5615 319.5,62.5C 321.344,67.5509 322.344,72.8843 322.5,78.5C 323.083,87.1549 323.416,95.8215 323.5,104.5C 323.5,104.833 323.5,105.167 323.5,105.5C 322.199,109.943 321.532,114.609 321.5,119.5C 319.989,122.544 319.322,125.878 319.5,129.5C 319.737,130.791 319.404,131.791 318.5,132.5C 317.076,134.515 316.41,136.848 316.5,139.5C 314.733,141.792 313.733,144.458 313.5,147.5C 313.672,148.492 313.338,149.158 312.5,149.5C 310.707,151.426 309.707,153.759 309.5,156.5C 303.946,168.608 297.113,179.941 289,190.5C 266.535,217.332 241.701,241.832 214.5,264C 190.291,283.049 165.957,301.882 141.5,320.5C 139.973,320.427 138.973,321.094 138.5,322.5C 124.689,333.584 111.022,344.918 97.5,356.5C 95.9731,356.427 94.9731,357.094 94.5,358.5C 82.5,369.833 70.8333,381.5 59.5,393.5C 58.0937,393.973 57.427,394.973 57.5,396.5C 51.2549,404.657 45.2549,412.99 39.5,421.5C 37.7497,422.659 36.7497,424.326 36.5,426.5C 36.0075,428.819 35.0075,430.819 33.5,432.5C 30.743,436.416 28.743,440.75 27.5,445.5C 26.5045,432.677 26.1712,419.677 26.5,406.5C 27.9224,384.963 31.4224,363.63 37,342.5C 39.6927,334.244 42.8594,326.244 46.5,318.5C 47.9063,318.027 48.573,317.027 48.5,315.5C 50.369,313.966 51.7023,311.966 52.5,309.5C 53.9063,309.027 54.573,308.027 54.5,306.5C 54.7376,304.596 55.7376,303.262 57.5,302.5C 59.2624,301.738 60.2624,300.404 60.5,298.5C 62.2624,297.738 63.2624,296.404 63.5,294.5C 67.8614,289.807 72.1948,285.141 76.5,280.5C 79.7642,278.906 82.4309,276.573 84.5,273.5C 85.5,271.833 86.8333,270.5 88.5,269.5C 93.1053,266.564 97.1053,262.898 100.5,258.5C 103.427,257.243 105.761,255.243 107.5,252.5C 110.089,251.581 112.089,249.914 113.5,247.5C 118.579,242.085 124.246,237.418 130.5,233.5C 132.749,232.92 134.415,231.587 135.5,229.5C 137.749,228.92 139.415,227.587 140.5,225.5C 142.749,224.92 144.415,223.587 145.5,221.5C 147.749,220.92 149.415,219.587 150.5,217.5C 152.404,217.262 153.738,216.262 154.5,214.5C 156.749,213.92 158.415,212.587 159.5,210.5C 163.795,206.353 168.462,202.687 173.5,199.5C 175.749,198.92 177.415,197.587 178.5,195.5C 180.749,194.92 182.415,193.587 183.5,191.5C 185.749,190.92 187.415,189.587 188.5,187.5C 190.749,186.92 192.415,185.587 193.5,183.5C 195.749,182.92 197.415,181.587 198.5,179.5C 201.089,178.581 203.089,176.914 204.5,174.5C 207.089,173.581 209.089,171.914 210.5,169.5C 213.089,168.581 215.089,166.914 216.5,164.5C 219.427,163.243 221.761,161.243 223.5,158.5C 226.427,157.243 228.761,155.243 230.5,152.5C 234.436,150.234 237.769,147.234 240.5,143.5C 250.527,133.14 260.527,122.807 270.5,112.5C 272.914,111.089 274.581,109.089 275.5,106.5C 275.738,104.596 276.738,103.262 278.5,102.5C 280.262,101.738 281.262,100.404 281.5,98.5C 282.906,98.0269 283.573,97.0269 283.5,95.5C 285.262,94.7377 286.262,93.4044 286.5,91.5C 287.906,91.0269 288.573,90.0269 288.5,88.5C 291.915,81.3346 295.582,74.3346 299.5,67.5C 301.213,66.3646 301.88,64.698 301.5,62.5C 303.862,60.081 304.862,57.081 304.5,53.5C 304.549,49.9219 305.215,46.5885 306.5,43.5C 307.184,40.4083 308.184,37.4083 309.5,34.5 Z"/></g>
<g><path style="opacity:0.263" fill="#b9ece2" d="M 309.5,34.5 C 308.184,37.4083 307.184,40.4083 306.5,43.5C 306.078,39.2778 306.745,35.2778 308.5,31.5C 309.386,32.325 309.719,33.325 309.5,34.5 Z"/></g>
<g><path style="opacity:0.8" fill="#98e3d3" d="M 311.5,38.5 C 312.537,39.9303 313.204,41.597 313.5,43.5C 311.787,42.3646 311.12,40.698 311.5,38.5 Z"/></g>
<g><path style="opacity:0.863" fill="#9de3d4" d="M 313.5,43.5 C 314.738,45.2143 315.405,47.2143 315.5,49.5C 313.72,48.0101 313.054,46.0101 313.5,43.5 Z"/></g>
<g><path style="opacity:0.835" fill="#9ee4d5" d="M 315.5,49.5 C 316.738,51.2143 317.405,53.2143 317.5,55.5C 315.72,54.0101 315.054,52.0101 315.5,49.5 Z"/></g>
<g><path style="opacity:0.863" fill="#9ae3d3" d="M 304.5,53.5 C 304.862,57.081 303.862,60.081 301.5,62.5C 301.928,59.2154 302.928,56.2154 304.5,53.5 Z"/></g>
<g><path style="opacity:0.267" fill="#c0eee4" d="M 317.5,55.5 C 318.924,57.5145 319.59,59.8478 319.5,62.5C 317.837,60.5615 317.171,58.2282 317.5,55.5 Z"/></g>
<g><path style="opacity:0.855" fill="#a4e5d6" d="M 301.5,62.5 C 301.88,64.698 301.213,66.3646 299.5,67.5C 299.402,65.4471 300.069,63.7804 301.5,62.5 Z"/></g>
<g><path style="opacity:0.514" fill="#9ae3d3" d="M 288.5,88.5 C 288.573,90.0269 287.906,91.0269 286.5,91.5C 286.427,89.9731 287.094,88.9731 288.5,88.5 Z"/></g>
<g><path style="opacity:0.075" fill="#e1f7f2" d="M 322.5,78.5 C 324.478,87.122 324.811,95.7886 323.5,104.5C 323.416,95.8215 323.083,87.1549 322.5,78.5 Z"/></g>
<g><path style="opacity:0.8" fill="#9ae3d3" d="M 286.5,91.5 C 286.262,93.4044 285.262,94.7377 283.5,95.5C 283.738,93.5956 284.738,92.2623 286.5,91.5 Z"/></g>
<g><path style="opacity:0.463" fill="#a5e7da" d="M 283.5,95.5 C 283.573,97.0269 282.906,98.0269 281.5,98.5C 281.427,96.9731 282.094,95.9731 283.5,95.5 Z"/></g>
<g><path style="opacity:0.757" fill="#9de4d5" d="M 281.5,98.5 C 281.262,100.404 280.262,101.738 278.5,102.5C 278.738,100.596 279.738,99.2623 281.5,98.5 Z"/></g>
<g><path style="opacity:0.565" fill="#a5e7d9" d="M 275.5,106.5 C 274.581,109.089 272.914,111.089 270.5,112.5C 271.419,109.911 273.086,107.911 275.5,106.5 Z"/></g>
<g><path style="opacity:0.039" fill="#d5f4ed" d="M 323.5,105.5 C 323.771,110.434 323.104,115.1 321.5,119.5C 321.532,114.609 322.199,109.943 323.5,105.5 Z"/></g>
<g><path style="opacity:0.18" fill="#c8f0e8" d="M 321.5,119.5 C 321.451,123.078 320.785,126.411 319.5,129.5C 319.322,125.878 319.989,122.544 321.5,119.5 Z"/></g>
<g><path style="opacity:0.055" fill="#c7f0e8" d="M 318.5,132.5 C 318.59,135.152 317.924,137.485 316.5,139.5C 316.41,136.848 317.076,134.515 318.5,132.5 Z"/></g>
<g><path style="opacity:0.235" fill="#c2efe6" d="M 316.5,139.5 C 316.267,142.542 315.267,145.208 313.5,147.5C 313.733,144.458 314.733,141.792 316.5,139.5 Z"/></g>
<g><path style="opacity:0.191" fill="#e8f9f6" d="M 25.5,148.5 C 52.3282,147.502 79.3282,147.169 106.5,147.5C 106.831,174.005 106.498,200.339 105.5,226.5C 105.5,200.5 105.5,174.5 105.5,148.5C 78.8333,148.5 52.1667,148.5 25.5,148.5 Z"/></g>
<g><path style="opacity:0.647" fill="#ade9de" d="M 25.5,148.5 C 52.1667,148.5 78.8333,148.5 105.5,148.5C 105.5,174.5 105.5,200.5 105.5,226.5C 105.167,226.5 104.833,226.5 104.5,226.5C 104.5,200.833 104.5,175.167 104.5,149.5C 78.5,149.5 52.5,149.5 26.5,149.5C 26.5,235.167 26.5,320.833 26.5,406.5C 26.1712,419.677 26.5045,432.677 27.5,445.5C 27.2041,447.403 26.5375,449.07 25.5,450.5C 24.451,350.015 24.451,249.348 25.5,148.5 Z"/></g>
<g><path style="opacity:0.999" fill="#72dac8" d="M 104.5,226.5 C 104.158,227.338 103.492,227.672 102.5,227.5C 100.973,227.427 99.9731,228.094 99.5,229.5C 99.1583,230.338 98.4916,230.672 97.5,230.5C 95.9731,230.427 94.9731,231.094 94.5,232.5C 94.1667,233.5 93.5,234.167 92.5,234.5C 90.9731,234.427 89.9731,235.094 89.5,236.5C 85.5,241.167 81.1667,245.5 76.5,249.5C 75.0937,249.973 74.427,250.973 74.5,252.5C 74.5,253.167 74.1667,253.5 73.5,253.5C 72.0937,253.973 71.427,254.973 71.5,256.5C 70.0937,256.973 69.427,257.973 69.5,259.5C 67.7497,260.659 66.7497,262.326 66.5,264.5C 64.412,266.336 63.0787,268.669 62.5,271.5C 62.6716,272.492 62.3382,273.158 61.5,273.5C 59.3754,276.088 58.0421,279.088 57.5,282.5C 52.8713,293.548 49.3713,304.882 47,316.5C 47.3826,315.944 47.8826,315.611 48.5,315.5C 48.573,317.027 47.9063,318.027 46.5,318.5C 42.8594,326.244 39.6927,334.244 37,342.5C 31.4224,363.63 27.9224,384.963 26.5,406.5C 26.5,320.833 26.5,235.167 26.5,149.5C 52.5,149.5 78.5,149.5 104.5,149.5C 104.5,175.167 104.5,200.833 104.5,226.5 Z"/></g>
<g><path style="opacity:0.937" fill="#72d7c0" d="M 240.5,143.5 C 237.769,147.234 234.436,150.234 230.5,152.5C 233.231,148.766 236.564,145.766 240.5,143.5 Z"/></g>
<g><path style="opacity:0.231" fill="#c2eee5" d="M 312.5,149.5 C 312.293,152.241 311.293,154.574 309.5,156.5C 309.707,153.759 310.707,151.426 312.5,149.5 Z"/></g>
<g><path style="opacity:0.812" fill="#7edbc6" d="M 230.5,152.5 C 228.761,155.243 226.427,157.243 223.5,158.5C 225.239,155.757 227.573,153.757 230.5,152.5 Z"/></g>
<g><path style="opacity:0.729" fill="#8bdfcc" d="M 223.5,158.5 C 221.761,161.243 219.427,163.243 216.5,164.5C 218.239,161.757 220.573,159.757 223.5,158.5 Z"/></g>
<g><path style="opacity:0.769" fill="#8fe0ce" d="M 216.5,164.5 C 215.089,166.914 213.089,168.581 210.5,169.5C 211.911,167.086 213.911,165.419 216.5,164.5 Z"/></g>
<g><path style="opacity:0.749" fill="#90e0ce" d="M 210.5,169.5 C 209.089,171.914 207.089,173.581 204.5,174.5C 205.911,172.086 207.911,170.419 210.5,169.5 Z"/></g>
<g><path style="opacity:0.749" fill="#8ee0ce" d="M 204.5,174.5 C 203.089,176.914 201.089,178.581 198.5,179.5C 199.911,177.086 201.911,175.419 204.5,174.5 Z"/></g>
<g><path style="opacity:0.729" fill="#92e2d1" d="M 198.5,179.5 C 197.415,181.587 195.749,182.92 193.5,183.5C 194.585,181.413 196.251,180.08 198.5,179.5 Z"/></g>
<g><path style="opacity:0.749" fill="#95e3d2" d="M 193.5,183.5 C 192.415,185.587 190.749,186.92 188.5,187.5C 189.585,185.413 191.251,184.08 193.5,183.5 Z"/></g>
<g><path style="opacity:0.78" fill="#8ee0cf" d="M 188.5,187.5 C 187.415,189.587 185.749,190.92 183.5,191.5C 184.585,189.413 186.251,188.08 188.5,187.5 Z"/></g>
<g><path style="opacity:0.851" fill="#87decb" d="M 183.5,191.5 C 182.415,193.587 180.749,194.92 178.5,195.5C 179.585,193.413 181.251,192.08 183.5,191.5 Z"/></g>
<g><path style="opacity:0.91" fill="#81dbc8" d="M 178.5,195.5 C 177.415,197.587 175.749,198.92 173.5,199.5C 174.585,197.413 176.251,196.08 178.5,195.5 Z"/></g>
<g><path style="opacity:0.902" fill="#83dcc8" d="M 159.5,210.5 C 158.415,212.587 156.749,213.92 154.5,214.5C 155.585,212.413 157.251,211.08 159.5,210.5 Z"/></g>
<g><path style="opacity:0.584" fill="#99e3d4" d="M 154.5,214.5 C 153.738,216.262 152.404,217.262 150.5,217.5C 151.262,215.738 152.596,214.738 154.5,214.5 Z"/></g>
<g><path style="opacity:0.792" fill="#90e0cf" d="M 150.5,217.5 C 149.415,219.587 147.749,220.92 145.5,221.5C 146.585,219.413 148.251,218.08 150.5,217.5 Z"/></g>
<g><path style="opacity:0.831" fill="#89decc" d="M 145.5,221.5 C 144.415,223.587 142.749,224.92 140.5,225.5C 141.585,223.413 143.251,222.08 145.5,221.5 Z"/></g>
<g><path style="opacity:1" fill="#73dac8" d="M 424.5,227.5 C 424.973,228.906 425.973,229.573 427.5,229.5C 435.903,235.363 443.903,241.696 451.5,248.5C 451.973,249.906 452.973,250.573 454.5,250.5C 455.167,250.5 455.5,250.833 455.5,251.5C 455.973,252.906 456.973,253.573 458.5,253.5C 459.5,253.833 460.167,254.5 460.5,255.5C 460.973,256.906 461.973,257.573 463.5,257.5C 464.167,257.5 464.5,257.833 464.5,258.5C 464.973,259.906 465.973,260.573 467.5,260.5C 468.539,262.531 470.205,263.864 472.5,264.5C 474.85,266.213 475.85,268.547 475.5,271.5C 475.5,272.167 475.167,272.5 474.5,272.5C 473.094,272.973 472.427,273.973 472.5,275.5C 472.167,276.5 471.5,277.167 470.5,277.5C 469.094,277.973 468.427,278.973 468.5,280.5C 468.5,281.167 468.167,281.5 467.5,281.5C 466.094,281.973 465.427,282.973 465.5,284.5C 465.167,285.5 464.5,286.167 463.5,286.5C 462.094,286.973 461.427,287.973 461.5,289.5C 458.848,293.482 455.848,297.149 452.5,300.5C 451.094,300.973 450.427,301.973 450.5,303.5C 450.167,304.5 449.5,305.167 448.5,305.5C 447.094,305.973 446.427,306.973 446.5,308.5C 446.5,309.167 446.167,309.5 445.5,309.5C 444.094,309.973 443.427,310.973 443.5,312.5C 443.167,313.5 442.5,314.167 441.5,314.5C 440.094,314.973 439.427,315.973 439.5,317.5C 439.5,318.167 439.167,318.5 438.5,318.5C 436.738,319.262 435.738,320.596 435.5,322.5C 435.5,323.167 435.167,323.5 434.5,323.5C 433.094,323.973 432.427,324.973 432.5,326.5C 432.167,327.5 431.5,328.167 430.5,328.5C 429.094,328.973 428.427,329.973 428.5,331.5C 422.063,340.055 415.396,348.388 408.5,356.5C 407.094,356.973 406.427,357.973 406.5,359.5C 405.299,361.909 403.633,363.909 401.5,365.5C 400.094,365.973 399.427,366.973 399.5,368.5C 399.167,369.5 398.5,370.167 397.5,370.5C 396.094,370.973 395.427,371.973 395.5,373.5C 386.97,385.237 377.97,396.57 368.5,407.5C 367.094,407.973 366.427,408.973 366.5,410.5C 366.167,411.5 365.5,412.167 364.5,412.5C 363.094,412.973 362.427,413.973 362.5,415.5C 362.5,416.167 362.167,416.5 361.5,416.5C 360.094,416.973 359.427,417.973 359.5,419.5C 359.167,420.5 358.5,421.167 357.5,421.5C 356.094,421.973 355.427,422.973 355.5,424.5C 352.21,430.087 348.21,435.087 343.5,439.5C 342.094,439.973 341.427,440.973 341.5,442.5C 341.167,443.5 340.5,444.167 339.5,444.5C 338.094,444.973 337.427,445.973 337.5,447.5C 337.5,448.167 337.167,448.5 336.5,448.5C 335.094,448.973 334.427,449.973 334.5,451.5C 334.5,452.167 334.167,452.5 333.5,452.5C 299.5,452.5 265.5,452.5 231.5,452.5C 248.882,433.778 265.215,414.111 280.5,393.5C 279.048,392.06 278.048,390.394 277.5,388.5C 278.815,389.476 280.148,390.476 281.5,391.5C 282.183,391.137 282.85,390.804 283.5,390.5C 285.914,389.089 287.581,387.089 288.5,384.5C 290.914,383.089 292.581,381.089 293.5,378.5C 295.587,377.415 296.92,375.749 297.5,373.5C 299.914,372.089 301.581,370.089 302.5,367.5C 304.914,366.089 306.581,364.089 307.5,361.5C 309.914,360.089 311.581,358.089 312.5,355.5C 314.914,354.089 316.581,352.089 317.5,349.5C 319.914,348.089 321.581,346.089 322.5,343.5C 324.914,342.089 326.581,340.089 327.5,337.5C 329.914,336.089 331.581,334.089 332.5,331.5C 332.5,330.833 332.833,330.5 333.5,330.5C 335.587,329.415 336.92,327.749 337.5,325.5C 339.914,324.089 341.581,322.089 342.5,319.5C 344.587,318.415 345.92,316.749 346.5,314.5C 348.914,313.089 350.581,311.089 351.5,308.5C 353.914,307.089 355.581,305.089 356.5,302.5C 358.914,301.089 360.581,299.089 361.5,296.5C 363.914,295.089 365.581,293.089 366.5,290.5C 367.8,287.568 369.8,285.234 372.5,283.5C 374.587,282.415 375.92,280.749 376.5,278.5C 377.701,276.091 379.367,274.091 381.5,272.5C 383.914,271.089 385.581,269.089 386.5,266.5C 388.587,265.415 389.92,263.749 390.5,261.5C 392.914,260.089 394.581,258.089 395.5,255.5C 397.914,254.089 399.581,252.089 400.5,249.5C 406.954,241.207 413.621,233.041 420.5,225C 422.412,224.721 423.746,225.554 424.5,227.5 Z"/></g>
<g><path style="opacity:0.012" fill="#e4f7f4" d="M 424.5,227.5 C 426.027,227.427 427.027,228.094 427.5,229.5C 425.973,229.573 424.973,228.906 424.5,227.5 Z"/></g>
<g><path style="opacity:0.016" fill="#e9f9f6" d="M 102.5,227.5 C 102.027,228.906 101.027,229.573 99.5,229.5C 99.9731,228.094 100.973,227.427 102.5,227.5 Z"/></g>
<g><path style="opacity:0.871" fill="#81dcc8" d="M 140.5,225.5 C 139.415,227.587 137.749,228.92 135.5,229.5C 136.585,227.413 138.251,226.08 140.5,225.5 Z"/></g>
<g><path style="opacity:0.051" fill="#e2f7f3" d="M 97.5,230.5 C 97.0269,231.906 96.0269,232.573 94.5,232.5C 94.9731,231.094 95.9731,230.427 97.5,230.5 Z"/></g>
<g><path style="opacity:0.906" fill="#79d9c4" d="M 135.5,229.5 C 134.415,231.587 132.749,232.92 130.5,233.5C 131.585,231.413 133.251,230.08 135.5,229.5 Z"/></g>
<g><path style="opacity:0.008" fill="#eaf9f6" d="M 92.5,234.5 C 92.0269,235.906 91.0269,236.573 89.5,236.5C 89.9731,235.094 90.9731,234.427 92.5,234.5 Z"/></g>
<g><path style="opacity:0.016" fill="#e3f8f4" d="M 451.5,248.5 C 453.027,248.427 454.027,249.094 454.5,250.5C 452.973,250.573 451.973,249.906 451.5,248.5 Z"/></g>
<g><path style="opacity:1" fill="#82dbc6" d="M 248.5,254.5 C 248.657,253.127 248.49,251.793 248,250.5C 247.617,251.056 247.117,251.389 246.5,251.5C 247.031,249.456 248.198,247.789 250,246.5C 250.703,249.482 250.203,252.149 248.5,254.5 Z"/></g>
<g><path style="opacity:0.027" fill="#e1f7f2" d="M 76.5,249.5 C 76.573,251.027 75.9063,252.027 74.5,252.5C 74.427,250.973 75.0937,249.973 76.5,249.5 Z"/></g>
<g><path style="opacity:0.898" fill="#7cdac5" d="M 113.5,247.5 C 112.089,249.914 110.089,251.581 107.5,252.5C 108.911,250.086 110.911,248.419 113.5,247.5 Z"/></g>
<g><path style="opacity:1" fill="#17be9b" d="M 248.5,254.5 C 246.299,261.233 242.799,267.233 238,272.5C 228.269,282.9 217.936,292.567 207,301.5C 206.7,303.066 207.2,304.399 208.5,305.5C 208.427,307.027 209.094,308.027 210.5,308.5C 211.5,308.833 212.167,309.5 212.5,310.5C 212.738,312.404 213.738,313.738 215.5,314.5C 216.5,314.833 217.167,315.5 217.5,316.5C 217.738,318.404 218.738,319.738 220.5,320.5C 221.5,320.833 222.167,321.5 222.5,322.5C 223.08,324.749 224.413,326.415 226.5,327.5C 227.5,327.833 228.167,328.5 228.5,329.5C 228.738,331.404 229.738,332.738 231.5,333.5C 232.5,333.833 233.167,334.5 233.5,335.5C 233.738,337.404 234.738,338.738 236.5,339.5C 237.5,339.833 238.167,340.5 238.5,341.5C 238.738,343.404 239.738,344.738 241.5,345.5C 242.5,345.833 243.167,346.5 243.5,347.5C 243.738,349.404 244.738,350.738 246.5,351.5C 247.5,351.833 248.167,352.5 248.5,353.5C 248.427,355.027 249.094,356.027 250.5,356.5C 252.167,357.5 253.5,358.833 254.5,360.5C 254.427,362.027 255.094,363.027 256.5,363.5C 257.5,363.833 258.167,364.5 258.5,365.5C 258.738,367.404 259.738,368.738 261.5,369.5C 262.5,369.833 263.167,370.5 263.5,371.5C 263.738,373.404 264.738,374.738 266.5,375.5C 267.5,375.833 268.167,376.5 268.5,377.5C 268.738,379.404 269.738,380.738 271.5,381.5C 272.5,381.833 273.167,382.5 273.5,383.5C 274.08,385.749 275.413,387.415 277.5,388.5C 278.048,390.394 279.048,392.06 280.5,393.5C 265.215,414.111 248.882,433.778 231.5,452.5C 230.833,452.5 230.167,452.5 229.5,452.5C 202.53,417.351 175.697,382.018 149,346.5C 127.621,362.052 106.121,377.386 84.5,392.5C 82.5168,392.843 81.1834,392.176 80.5,390.5C 81.9063,390.027 82.573,389.027 82.5,387.5C 83.9063,387.027 84.573,386.027 84.5,384.5C 86.2624,383.738 87.2624,382.404 87.5,380.5C 89.8605,377.473 92.5271,374.806 95.5,372.5C 98.4274,371.243 100.761,369.243 102.5,366.5C 104.749,365.92 106.415,364.587 107.5,362.5C 109.749,361.92 111.415,360.587 112.5,358.5C 113.262,356.738 114.596,355.738 116.5,355.5C 118.404,355.262 119.738,354.262 120.5,352.5C 122.027,352.573 123.027,351.906 123.5,350.5C 123.973,349.094 124.973,348.427 126.5,348.5C 128.404,348.262 129.738,347.262 130.5,345.5C 132.027,345.573 133.027,344.906 133.5,343.5C 135.027,343.573 136.027,342.906 136.5,341.5C 138.027,341.573 139.027,340.906 139.5,339.5C 141.027,339.573 142.027,338.906 142.5,337.5C 149.955,331.933 157.621,326.599 165.5,321.5C 167.027,321.573 168.027,320.906 168.5,319.5C 170.147,317.674 172.147,316.34 174.5,315.5C 176.404,315.262 177.738,314.262 178.5,312.5C 180.55,310.453 182.883,308.786 185.5,307.5C 187.404,307.262 188.738,306.262 189.5,304.5C 191.404,304.262 192.738,303.262 193.5,301.5C 195.749,300.92 197.415,299.587 198.5,297.5C 200.404,297.262 201.738,296.262 202.5,294.5C 204.091,292.367 206.091,290.701 208.5,289.5C 210.749,288.92 212.415,287.587 213.5,285.5C 218.774,281.895 223.441,277.562 227.5,272.5C 227.833,271.5 228.5,270.833 229.5,270.5C 234.23,266.773 238.23,262.44 241.5,257.5C 243.262,256.738 244.262,255.404 244.5,253.5C 244.833,252.5 245.5,251.833 246.5,251.5C 247.117,251.389 247.617,251.056 248,250.5C 248.49,251.793 248.657,253.127 248.5,254.5 Z"/></g>
<g><path style="opacity:0.004" fill="#e9f9f6" d="M 455.5,251.5 C 457.027,251.427 458.027,252.094 458.5,253.5C 456.973,253.573 455.973,252.906 455.5,251.5 Z"/></g>
<g><path style="opacity:0.486" fill="#d1f2ec" d="M 400.5,249.5 C 399.581,252.089 397.914,254.089 395.5,255.5C 396.419,252.911 398.086,250.911 400.5,249.5 Z"/></g>
<g><path style="opacity:0.027" fill="#e1f6f2" d="M 73.5,253.5 C 73.573,255.027 72.9063,256.027 71.5,256.5C 71.427,254.973 72.0937,253.973 73.5,253.5 Z"/></g>
<g><path style="opacity:0.729" fill="#a3e6d7" d="M 244.5,253.5 C 244.262,255.404 243.262,256.738 241.5,257.5C 241.738,255.596 242.738,254.262 244.5,253.5 Z"/></g>
<g><path style="opacity:0.78" fill="#84ddc9" d="M 107.5,252.5 C 105.761,255.243 103.427,257.243 100.5,258.5C 102.239,255.757 104.573,253.757 107.5,252.5 Z"/></g>
<g><path style="opacity:0.031" fill="#e1f6f3" d="M 460.5,255.5 C 462.027,255.427 463.027,256.094 463.5,257.5C 461.973,257.573 460.973,256.906 460.5,255.5 Z"/></g>
<g><path style="opacity:0.024" fill="#e3f7f4" d="M 71.5,256.5 C 71.573,258.027 70.9063,259.027 69.5,259.5C 69.427,257.973 70.0937,256.973 71.5,256.5 Z"/></g>
<g><path style="opacity:0.447" fill="#d3f3ee" d="M 395.5,255.5 C 394.581,258.089 392.914,260.089 390.5,261.5C 391.419,258.911 393.086,256.911 395.5,255.5 Z"/></g>
<g><path style="opacity:0.016" fill="#e4f8f4" d="M 464.5,258.5 C 466.027,258.427 467.027,259.094 467.5,260.5C 465.973,260.573 464.973,259.906 464.5,258.5 Z"/></g>
<g><path style="opacity:0.161" fill="#dff6f2" d="M 69.5,259.5 C 69.2503,261.674 68.2503,263.341 66.5,264.5C 66.7497,262.326 67.7497,260.659 69.5,259.5 Z"/></g>
<g><path style="opacity:0.008" fill="#d8f4ef" d="M 467.5,260.5 C 469.754,261.124 471.421,262.457 472.5,264.5C 470.205,263.864 468.539,262.531 467.5,260.5 Z"/></g>
<g><path style="opacity:0.416" fill="#d2f3ed" d="M 390.5,261.5 C 389.92,263.749 388.587,265.415 386.5,266.5C 387.08,264.251 388.413,262.585 390.5,261.5 Z"/></g>
<g><path style="opacity:0.898" fill="#7ddac5" d="M 100.5,258.5 C 97.1053,262.898 93.1053,266.564 88.5,269.5C 91.8947,265.102 95.8947,261.436 100.5,258.5 Z"/></g>
<g><path style="opacity:0.58" fill="#a2e6d8" d="M 241.5,257.5 C 238.23,262.44 234.23,266.773 229.5,270.5C 232.77,265.56 236.77,261.227 241.5,257.5 Z"/></g>
<g><path style="opacity:0.933" fill="#c6efe8" d="M 472.5,264.5 C 474.886,265.373 476.886,266.873 478.5,269C 477.627,270.045 476.627,270.878 475.5,271.5C 475.85,268.547 474.85,266.213 472.5,264.5 Z"/></g>
<g><path style="opacity:0.557" fill="#cbf1ea" d="M 386.5,266.5 C 385.581,269.089 383.914,271.089 381.5,272.5C 382.419,269.911 384.086,267.911 386.5,266.5 Z"/></g>
<g><path style="opacity:0.094" fill="#e1f7f3" d="M 66.5,264.5 C 65.9213,267.331 64.588,269.664 62.5,271.5C 63.0787,268.669 64.412,266.336 66.5,264.5 Z"/></g>
<g><path style="opacity:0.039" fill="#e1f7f3" d="M 474.5,272.5 C 474.573,274.027 473.906,275.027 472.5,275.5C 472.427,273.973 473.094,272.973 474.5,272.5 Z"/></g>
<g><path style="opacity:0.729" fill="#8cdfcc" d="M 84.5,273.5 C 82.4309,276.573 79.7642,278.906 76.5,280.5C 78.5691,277.427 81.2358,275.094 84.5,273.5 Z"/></g>
<g><path style="opacity:0.027" fill="#dff6f2" d="M 470.5,277.5 C 470.573,279.027 469.906,280.027 468.5,280.5C 468.427,278.973 469.094,277.973 470.5,277.5 Z"/></g>
<g><path style="opacity:0.776" fill="#88ddc9" d="M 227.5,272.5 C 223.441,277.562 218.774,281.895 213.5,285.5C 217.559,280.438 222.226,276.105 227.5,272.5 Z"/></g>
<g><path style="opacity:0.337" fill="#d8f4ef" d="M 61.5,273.5 C 60.9579,276.912 59.6246,279.912 57.5,282.5C 58.0421,279.088 59.3754,276.088 61.5,273.5 Z"/></g>
<g><path style="opacity:0.592" fill="#c6f0e8" d="M 376.5,278.5 C 375.92,280.749 374.587,282.415 372.5,283.5C 373.08,281.251 374.413,279.585 376.5,278.5 Z"/></g>
<g><path style="opacity:0.012" fill="#e7f8f5" d="M 467.5,281.5 C 467.573,283.027 466.906,284.027 465.5,284.5C 465.427,282.973 466.094,281.973 467.5,281.5 Z"/></g>
<g><path style="opacity:0.008" fill="#e6f8f5" d="M 463.5,286.5 C 463.573,288.027 462.906,289.027 461.5,289.5C 461.427,287.973 462.094,286.973 463.5,286.5 Z"/></g>
<g><path style="opacity:0.906" fill="#84dcc7" d="M 213.5,285.5 C 212.415,287.587 210.749,288.92 208.5,289.5C 209.585,287.413 211.251,286.08 213.5,285.5 Z"/></g>
<g><path style="opacity:0.573" fill="#cbf1ea" d="M 366.5,290.5 C 365.581,293.089 363.914,295.089 361.5,296.5C 362.419,293.911 364.086,291.911 366.5,290.5 Z"/></g>
<g><path style="opacity:0.631" fill="#ace9dc" d="M 63.5,294.5 C 63.2624,296.404 62.2624,297.738 60.5,298.5C 60.7376,296.596 61.7376,295.262 63.5,294.5 Z"/></g>
<g><path style="opacity:0.51" fill="#a7e7d9" d="M 202.5,294.5 C 201.738,296.262 200.404,297.262 198.5,297.5C 199.262,295.738 200.596,294.738 202.5,294.5 Z"/></g>
<g><path style="opacity:0.42" fill="#aae8db" d="M 198.5,297.5 C 197.415,299.587 195.749,300.92 193.5,301.5C 194.585,299.413 196.251,298.08 198.5,297.5 Z"/></g>
<g><path style="opacity:0.529" fill="#cdf1ea" d="M 361.5,296.5 C 360.581,299.089 358.914,301.089 356.5,302.5C 357.419,299.911 359.086,297.911 361.5,296.5 Z"/></g>
<g><path style="opacity:0.545" fill="#9ee5d6" d="M 60.5,298.5 C 60.2624,300.404 59.2624,301.738 57.5,302.5C 57.7376,300.596 58.7376,299.262 60.5,298.5 Z"/></g>
<g><path style="opacity:0.008" fill="#e6f8f5" d="M 452.5,300.5 C 452.573,302.027 451.906,303.027 450.5,303.5C 450.427,301.973 451.094,300.973 452.5,300.5 Z"/></g>
<g><path style="opacity:0.475" fill="#aae8db" d="M 193.5,301.5 C 192.738,303.262 191.404,304.262 189.5,304.5C 190.262,302.738 191.596,301.738 193.5,301.5 Z"/></g>
<g><path style="opacity:0.478" fill="#a6e7da" d="M 189.5,304.5 C 188.738,306.262 187.404,307.262 185.5,307.5C 186.262,305.738 187.596,304.738 189.5,304.5 Z"/></g>
<g><path style="opacity:0.525" fill="#cef2eb" d="M 356.5,302.5 C 355.581,305.089 353.914,307.089 351.5,308.5C 352.419,305.911 354.086,303.911 356.5,302.5 Z"/></g>
<g><path style="opacity:0.553" fill="#aee9dc" d="M 208.5,305.5 C 209.906,305.973 210.573,306.973 210.5,308.5C 209.094,308.027 208.427,307.027 208.5,305.5 Z"/></g>
<g><path style="opacity:0.016" fill="#e2f7f3" d="M 448.5,305.5 C 448.573,307.027 447.906,308.027 446.5,308.5C 446.427,306.973 447.094,305.973 448.5,305.5 Z"/></g>
<g><path style="opacity:0.435" fill="#a5e6d9" d="M 54.5,306.5 C 54.573,308.027 53.9063,309.027 52.5,309.5C 52.427,307.973 53.0937,306.973 54.5,306.5 Z"/></g>
<g><path style="opacity:0.02" fill="#e6f8f5" d="M 445.5,309.5 C 445.573,311.027 444.906,312.027 443.5,312.5C 443.427,310.973 444.094,309.973 445.5,309.5 Z"/></g>
<g><path style="opacity:0.714" fill="#a1e5d6" d="M 212.5,310.5 C 214.262,311.262 215.262,312.596 215.5,314.5C 213.738,313.738 212.738,312.404 212.5,310.5 Z"/></g>
<g><path style="opacity:0.486" fill="#d0f2ec" d="M 351.5,308.5 C 350.581,311.089 348.914,313.089 346.5,314.5C 347.419,311.911 349.086,309.911 351.5,308.5 Z"/></g>
<g><path style="opacity:0.549" fill="#98e2d3" d="M 178.5,312.5 C 177.738,314.262 176.404,315.262 174.5,315.5C 175.262,313.738 176.596,312.738 178.5,312.5 Z"/></g>
<g><path style="opacity:1" fill="#7fd9c4" d="M 52.5,309.5 C 51.7023,311.966 50.369,313.966 48.5,315.5C 48.8449,312.802 50.1782,310.802 52.5,309.5 Z"/></g>
<g><path style="opacity:0.031" fill="#e3f7f3" d="M 441.5,314.5 C 441.573,316.027 440.906,317.027 439.5,317.5C 439.427,315.973 440.094,314.973 441.5,314.5 Z"/></g>
<g><path style="opacity:0.753" fill="#9de4d5" d="M 217.5,316.5 C 219.262,317.262 220.262,318.596 220.5,320.5C 218.738,319.738 217.738,318.404 217.5,316.5 Z"/></g>
<g><path style="opacity:0.475" fill="#cff2eb" d="M 346.5,314.5 C 345.92,316.749 344.587,318.415 342.5,319.5C 343.08,317.251 344.413,315.585 346.5,314.5 Z"/></g>
<g><path style="opacity:0.008" fill="#e5f8f4" d="M 438.5,318.5 C 438.262,320.404 437.262,321.738 435.5,322.5C 435.738,320.596 436.738,319.262 438.5,318.5 Z"/></g>
<g><path style="opacity:0.627" fill="#9ce5d5" d="M 168.5,319.5 C 168.027,320.906 167.027,321.573 165.5,321.5C 165.973,320.094 166.973,319.427 168.5,319.5 Z"/></g>
<g><path style="opacity:0.004" fill="#ddf6f1" d="M 141.5,320.5 C 141.027,321.906 140.027,322.573 138.5,322.5C 138.973,321.094 139.973,320.427 141.5,320.5 Z"/></g>
<g><path style="opacity:0.576" fill="#c9f0e9" d="M 342.5,319.5 C 341.581,322.089 339.914,324.089 337.5,325.5C 338.419,322.911 340.086,320.911 342.5,319.5 Z"/></g>
<g><path style="opacity:0.745" fill="#a4e6d8" d="M 222.5,322.5 C 224.587,323.585 225.92,325.251 226.5,327.5C 224.413,326.415 223.08,324.749 222.5,322.5 Z"/></g>
<g><path style="opacity:0.012" fill="#e5f8f4" d="M 434.5,323.5 C 434.573,325.027 433.906,326.027 432.5,326.5C 432.427,324.973 433.094,323.973 434.5,323.5 Z"/></g>
<g><path style="opacity:0.596" fill="#c6efe8" d="M 337.5,325.5 C 336.92,327.749 335.587,329.415 333.5,330.5C 334.08,328.251 335.413,326.585 337.5,325.5 Z"/></g>
<g><path style="opacity:0.012" fill="#e4f7f4" d="M 430.5,328.5 C 430.573,330.027 429.906,331.027 428.5,331.5C 428.427,329.973 429.094,328.973 430.5,328.5 Z"/></g>
<g><path style="opacity:0.624" fill="#ace8dc" d="M 228.5,329.5 C 230.262,330.262 231.262,331.596 231.5,333.5C 229.738,332.738 228.738,331.404 228.5,329.5 Z"/></g>
<g><path style="opacity:0.596" fill="#c9f0e9" d="M 332.5,331.5 C 331.581,334.089 329.914,336.089 327.5,337.5C 328.419,334.911 330.086,332.911 332.5,331.5 Z"/></g>
<g><path style="opacity:0.592" fill="#aeeadd" d="M 233.5,335.5 C 235.262,336.262 236.262,337.596 236.5,339.5C 234.738,338.738 233.738,337.404 233.5,335.5 Z"/></g>
<g><path style="opacity:0.627" fill="#9de4d6" d="M 142.5,337.5 C 142.027,338.906 141.027,339.573 139.5,339.5C 139.973,338.094 140.973,337.427 142.5,337.5 Z"/></g>
<g><path style="opacity:0.584" fill="#a4e6d9" d="M 139.5,339.5 C 139.027,340.906 138.027,341.573 136.5,341.5C 136.973,340.094 137.973,339.427 139.5,339.5 Z"/></g>
<g><path style="opacity:0.6" fill="#c8f0e9" d="M 327.5,337.5 C 326.581,340.089 324.914,342.089 322.5,343.5C 323.419,340.911 325.086,338.911 327.5,337.5 Z"/></g>
<g><path style="opacity:0.545" fill="#abe8dc" d="M 136.5,341.5 C 136.027,342.906 135.027,343.573 133.5,343.5C 133.973,342.094 134.973,341.427 136.5,341.5 Z"/></g>
<g><path style="opacity:0.584" fill="#ade9dd" d="M 238.5,341.5 C 240.262,342.262 241.262,343.596 241.5,345.5C 239.738,344.738 238.738,343.404 238.5,341.5 Z"/></g>
<g><path style="opacity:0.514" fill="#b1eadf" d="M 133.5,343.5 C 133.027,344.906 132.027,345.573 130.5,345.5C 130.973,344.094 131.973,343.427 133.5,343.5 Z"/></g>
<g><path style="opacity:0.498" fill="#a8e7da" d="M 130.5,345.5 C 129.738,347.262 128.404,348.262 126.5,348.5C 127.262,346.738 128.596,345.738 130.5,345.5 Z"/></g>
<g><path style="opacity:0.58" fill="#c8f0e9" d="M 322.5,343.5 C 321.581,346.089 319.914,348.089 317.5,349.5C 318.419,346.911 320.086,344.911 322.5,343.5 Z"/></g>
<g><path style="opacity:0.612" fill="#abe8dc" d="M 243.5,347.5 C 245.262,348.262 246.262,349.596 246.5,351.5C 244.738,350.738 243.738,349.404 243.5,347.5 Z"/></g>
<g><path style="opacity:0.643" fill="#99e3d4" d="M 123.5,350.5 C 123.027,351.906 122.027,352.573 120.5,352.5C 120.973,351.094 121.973,350.427 123.5,350.5 Z"/></g>
<g><path style="opacity:0.592" fill="#c9f0e9" d="M 317.5,349.5 C 316.581,352.089 314.914,354.089 312.5,355.5C 313.419,352.911 315.086,350.911 317.5,349.5 Z"/></g>
<g><path style="opacity:0.533" fill="#a0e5d6" d="M 120.5,352.5 C 119.738,354.262 118.404,355.262 116.5,355.5C 117.262,353.738 118.596,352.738 120.5,352.5 Z"/></g>
<g><path style="opacity:0.651" fill="#9fe5d6" d="M 248.5,353.5 C 249.906,353.973 250.573,354.973 250.5,356.5C 249.094,356.027 248.427,355.027 248.5,353.5 Z"/></g>
<g><path style="opacity:0.012" fill="#def6f1" d="M 97.5,356.5 C 97.0269,357.906 96.0269,358.573 94.5,358.5C 94.9731,357.094 95.9731,356.427 97.5,356.5 Z"/></g>
<g><path style="opacity:0.004" fill="#e4f8f4" d="M 408.5,356.5 C 408.573,358.027 407.906,359.027 406.5,359.5C 406.427,357.973 407.094,356.973 408.5,356.5 Z"/></g>
<g><path style="opacity:0.553" fill="#cbf1ea" d="M 312.5,355.5 C 311.581,358.089 309.914,360.089 307.5,361.5C 308.419,358.911 310.086,356.911 312.5,355.5 Z"/></g>
<g><path style="opacity:0.835" fill="#7bdbc6" d="M 112.5,358.5 C 111.415,360.587 109.749,361.92 107.5,362.5C 108.585,360.413 110.251,359.08 112.5,358.5 Z"/></g>
<g><path style="opacity:0.553" fill="#b1eade" d="M 254.5,360.5 C 255.906,360.973 256.573,361.973 256.5,363.5C 255.094,363.027 254.427,362.027 254.5,360.5 Z"/></g>
<g><path style="opacity:0.525" fill="#cef2eb" d="M 307.5,361.5 C 306.581,364.089 304.914,366.089 302.5,367.5C 303.419,364.911 305.086,362.911 307.5,361.5 Z"/></g>
<g><path style="opacity:0.831" fill="#7edbc7" d="M 107.5,362.5 C 106.415,364.587 104.749,365.92 102.5,366.5C 103.585,364.413 105.251,363.08 107.5,362.5 Z"/></g>
<g><path style="opacity:0.702" fill="#a5e6d8" d="M 258.5,365.5 C 260.262,366.262 261.262,367.596 261.5,369.5C 259.738,368.738 258.738,367.404 258.5,365.5 Z"/></g>
<g><path style="opacity:0.012" fill="#e6f8f5" d="M 401.5,365.5 C 401.573,367.027 400.906,368.027 399.5,368.5C 399.427,366.973 400.094,365.973 401.5,365.5 Z"/></g>
<g><path style="opacity:0.769" fill="#86ddc9" d="M 102.5,366.5 C 100.761,369.243 98.4274,371.243 95.5,372.5C 97.2393,369.757 99.5726,367.757 102.5,366.5 Z"/></g>
<g><path style="opacity:0.494" fill="#d1f2ec" d="M 302.5,367.5 C 301.581,370.089 299.914,372.089 297.5,373.5C 298.419,370.911 300.086,368.911 302.5,367.5 Z"/></g>
<g><path style="opacity:0.016" fill="#e1f7f3" d="M 397.5,370.5 C 397.573,372.027 396.906,373.027 395.5,373.5C 395.427,371.973 396.094,370.973 397.5,370.5 Z"/></g>
<g><path style="opacity:0.706" fill="#a5e6d8" d="M 263.5,371.5 C 265.262,372.262 266.262,373.596 266.5,375.5C 264.738,374.738 263.738,373.404 263.5,371.5 Z"/></g>
<g><path style="opacity:0.478" fill="#cff2eb" d="M 297.5,373.5 C 296.92,375.749 295.587,377.415 293.5,378.5C 294.08,376.251 295.413,374.585 297.5,373.5 Z"/></g>
<g><path style="opacity:0.698" fill="#9fe5d6" d="M 268.5,377.5 C 270.262,378.262 271.262,379.596 271.5,381.5C 269.738,380.738 268.738,379.404 268.5,377.5 Z"/></g>
<g><path style="opacity:0.659" fill="#afe9dc" d="M 87.5,380.5 C 87.2624,382.404 86.2624,383.738 84.5,384.5C 84.7376,382.596 85.7376,381.262 87.5,380.5 Z"/></g>
<g><path style="opacity:0.608" fill="#c7efe8" d="M 293.5,378.5 C 292.581,381.089 290.914,383.089 288.5,384.5C 289.419,381.911 291.086,379.911 293.5,378.5 Z"/></g>
<g><path style="opacity:0.396" fill="#aee9dc" d="M 84.5,384.5 C 84.573,386.027 83.9063,387.027 82.5,387.5C 82.427,385.973 83.0937,384.973 84.5,384.5 Z"/></g>
<g><path style="opacity:0.424" fill="#b4ebe0" d="M 273.5,383.5 C 275.587,384.585 276.92,386.251 277.5,388.5C 275.413,387.415 274.08,385.749 273.5,383.5 Z"/></g>
<g><path style="opacity:0.624" fill="#c5efe8" d="M 288.5,384.5 C 287.581,387.089 285.914,389.089 283.5,390.5C 284.419,387.911 286.086,385.911 288.5,384.5 Z"/></g>
<g><path style="opacity:0.282" fill="#b4eade" d="M 82.5,387.5 C 82.573,389.027 81.9063,390.027 80.5,390.5C 80.427,388.973 81.0937,387.973 82.5,387.5 Z"/></g>
<g><path style="opacity:0.929" fill="#8cddca" d="M 80.5,390.5 C 81.1834,392.176 82.5168,392.843 84.5,392.5C 82.8767,393.779 81.21,395.113 79.5,396.5C 78.5613,394.308 78.8947,392.308 80.5,390.5 Z"/></g>
<g><path style="opacity:0.008" fill="#d2f3ec" d="M 59.5,393.5 C 59.573,395.027 58.9063,396.027 57.5,396.5C 57.427,394.973 58.0937,393.973 59.5,393.5 Z"/></g>
<g><path style="opacity:0.012" fill="#e4f7f4" d="M 368.5,407.5 C 368.573,409.027 367.906,410.027 366.5,410.5C 366.427,408.973 367.094,407.973 368.5,407.5 Z"/></g>
<g><path style="opacity:0.035" fill="#def6f1" d="M 364.5,412.5 C 364.573,414.027 363.906,415.027 362.5,415.5C 362.427,413.973 363.094,412.973 364.5,412.5 Z"/></g>
<g><path style="opacity:0.004" fill="#e6f8f4" d="M 361.5,416.5 C 361.573,418.027 360.906,419.027 359.5,419.5C 359.427,417.973 360.094,416.973 361.5,416.5 Z"/></g>
<g><path style="opacity:0.039" fill="#dff6f2" d="M 357.5,421.5 C 357.573,423.027 356.906,424.027 355.5,424.5C 355.427,422.973 356.094,421.973 357.5,421.5 Z"/></g>
<g><path style="opacity:0.008" fill="#eefaf8" d="M 39.5,421.5 C 39.2503,423.674 38.2503,425.341 36.5,426.5C 36.7497,424.326 37.7497,422.659 39.5,421.5 Z"/></g>
<g><path style="opacity:0.063" fill="#d9f5ef" d="M 33.5,432.5 C 31.1726,439.148 28.8393,445.815 26.5,452.5C 25.7025,452.043 25.3691,451.376 25.5,450.5C 26.5375,449.07 27.2041,447.403 27.5,445.5C 28.743,440.75 30.743,436.416 33.5,432.5 Z"/></g>
<g><path style="opacity:0.004" fill="#e6f8f5" d="M 343.5,439.5 C 343.573,441.027 342.906,442.027 341.5,442.5C 341.427,440.973 342.094,439.973 343.5,439.5 Z"/></g>
<g><path style="opacity:0.016" fill="#e4f7f4" d="M 339.5,444.5 C 339.573,446.027 338.906,447.027 337.5,447.5C 337.427,445.973 338.094,444.973 339.5,444.5 Z"/></g>
<g><path style="opacity:0.004" fill="#ecfaf7" d="M 336.5,448.5 C 336.573,450.027 335.906,451.027 334.5,451.5C 334.427,449.973 335.094,448.973 336.5,448.5 Z"/></g>
<g><path style="opacity:0.491" fill="#d2f3ed" d="M 229.5,452.5 C 230.167,452.5 230.833,452.5 231.5,452.5C 265.5,452.5 299.5,452.5 333.5,452.5C 333.389,453.117 333.056,453.617 332.5,454C 317.667,454.167 302.833,454.333 288,454.5C 271.682,454.133 255.515,454.133 239.5,454.5C 235.976,454.099 232.642,453.433 229.5,452.5 Z"/></g>
</svg>
