<?xml version="1.0" encoding="UTF-8"?>
<!DOCTYPE svg PUBLIC "-//W3C//DTD SVG 1.1//EN" "http://www.w3.org/Graphics/SVG/1.1/DTD/svg11.dtd">
<svg xmlns="http://www.w3.org/2000/svg" version="1.1" width="1092px" height="228px" style="shape-rendering:geometricPrecision; text-rendering:geometricPrecision; image-rendering:optimizeQuality; fill-rule:evenodd; clip-rule:evenodd" xmlns:xlink="http://www.w3.org/1999/xlink">
<g><path style="opacity:0.247" fill="#d7f4ee" d="M 172.5,5.5 C 171.833,5.16667 171.167,4.83333 170.5,4.5C 171.301,2.20706 171.968,2.5404 172.5,5.5 Z"/></g>
<g><path style="opacity:1" fill="#1bbf9c" d="M 170.5,4.5 C 171.167,4.83333 171.833,5.16667 172.5,5.5C 173.11,6.39105 173.443,7.39105 173.5,8.5C 173.12,10.698 173.787,12.3646 175.5,13.5C 175.5,14.1667 175.5,14.8333 175.5,15.5C 175.41,18.1522 176.076,20.4855 177.5,22.5C 181.244,44.3915 176.078,64.0582 162,81.5C 158,86.1667 154,90.8333 150,95.5C 128.036,115.137 105.202,133.637 81.5,151C 75.1271,157.042 68.4604,162.708 61.5,168C 49.2361,179.404 39.5695,192.571 32.5,207.5C 31.5067,198.682 31.1734,189.682 31.5,180.5C 32.8146,171.86 34.648,163.193 37,154.5C 39.0619,150.605 40.8952,146.605 42.5,142.5C 43.9063,142.027 44.573,141.027 44.5,139.5C 46.2624,138.738 47.2624,137.404 47.5,135.5C 47.8333,134.5 48.5,133.833 49.5,133.5C 51.2624,132.738 52.2624,131.404 52.5,129.5C 54.8333,126.5 57.5,123.833 60.5,121.5C 62.7488,120.92 64.4154,119.587 65.5,117.5C 66.1667,116.167 67.1667,115.167 68.5,114.5C 71.0892,113.581 73.0892,111.914 74.5,109.5C 77.0892,108.581 79.0892,106.914 80.5,104.5C 84.5873,100.078 89.2539,96.4108 94.5,93.5C 96.7488,92.9202 98.4154,91.5869 99.5,89.5C 101.749,88.9202 103.415,87.5869 104.5,85.5C 106.749,84.9202 108.415,83.5869 109.5,81.5C 110.262,79.7376 111.596,78.7376 113.5,78.5C 116.089,77.5806 118.089,75.914 119.5,73.5C 121.749,72.9202 123.415,71.5869 124.5,69.5C 127.089,68.5806 129.089,66.914 130.5,64.5C 131.5,62.8333 132.833,61.5 134.5,60.5C 138.436,58.2343 141.769,55.2343 144.5,51.5C 146.262,50.7377 147.262,49.4044 147.5,47.5C 149.167,45.1667 151.167,43.1667 153.5,41.5C 154.906,41.0269 155.573,40.0269 155.5,38.5C 157.147,35.5265 159.147,32.8599 161.5,30.5C 162.906,30.0269 163.573,29.0269 163.5,27.5C 167.23,20.245 169.563,12.5784 170.5,4.5 Z"/></g>
<g><path style="opacity:0.835" fill="#a6e6d7" d="M 173.5,8.5 C 174.931,9.78041 175.598,11.4471 175.5,13.5C 173.787,12.3646 173.12,10.698 173.5,8.5 Z"/></g>
<g><path style="opacity:0.525" fill="#95e2d2" d="M 175.5,15.5 C 176.924,17.5145 177.59,19.8478 177.5,22.5C 176.076,20.4855 175.41,18.1522 175.5,15.5 Z"/></g>
<g><path style="opacity:0.455" fill="#9de5d5" d="M 163.5,27.5 C 163.573,29.0269 162.906,30.0269 161.5,30.5C 161.427,28.9731 162.094,27.9731 163.5,27.5 Z"/></g>
<g><path style="opacity:0.663" fill="#a2e5d7" d="M 155.5,38.5 C 155.573,40.0269 154.906,41.0269 153.5,41.5C 153.427,39.9731 154.094,38.9731 155.5,38.5 Z"/></g>
<g><path style="opacity:0.529" fill="#a0e5d6" d="M 147.5,47.5 C 147.262,49.4044 146.262,50.7377 144.5,51.5C 144.738,49.5956 145.738,48.2623 147.5,47.5 Z"/></g>
<g><path style="opacity:0.706" fill="#93e1cf" d="M 144.5,51.5 C 141.769,55.2343 138.436,58.2343 134.5,60.5C 137.231,56.7657 140.564,53.7657 144.5,51.5 Z"/></g>
<g><path style="opacity:0.554" fill="#83decc" d="M 724.5,56.5 C 724.5,56.1667 724.5,55.8333 724.5,55.5C 740.17,55.3334 755.837,55.5001 771.5,56C 773.382,56.1981 775.048,56.6981 776.5,57.5C 759.187,56.5874 741.854,56.2541 724.5,56.5 Z"/></g>
<g><path style="opacity:0.546" fill="#b6ebe0" d="M 883.5,58.5 C 882.711,58.2172 882.044,57.7172 881.5,57C 874.508,56.5004 867.508,56.3337 860.5,56.5C 860.5,89.8333 860.5,123.167 860.5,156.5C 859.502,123.004 859.168,89.3375 859.5,55.5C 867.174,55.3336 874.841,55.5003 882.5,56C 883.252,56.6708 883.586,57.5041 883.5,58.5 Z"/></g>
<g><path style="opacity:0.544" fill="#7eddcb" d="M 962.5,55.5 C 962.5,55.8333 962.5,56.1667 962.5,56.5C 955.08,56.2027 947.746,56.536 940.5,57.5C 947.424,55.5367 954.757,54.8701 962.5,55.5 Z"/></g>
<g><path style="opacity:1" fill="#25c09d" d="M 340.5,67.5 C 340.738,69.4044 341.738,70.7377 343.5,71.5C 344.674,72.5137 345.34,73.847 345.5,75.5C 345.69,78.855 346.69,81.855 348.5,84.5C 350.366,94.9428 347.866,104.276 341,112.5C 337.598,115.084 334.431,117.75 331.5,120.5C 331.427,122.027 332.094,123.027 333.5,123.5C 334.338,123.842 334.672,124.508 334.5,125.5C 334.427,127.027 335.094,128.027 336.5,128.5C 337.338,128.842 337.672,129.508 337.5,130.5C 337.427,132.027 338.094,133.027 339.5,133.5C 339.427,135.027 340.094,136.027 341.5,136.5C 342.338,136.842 342.672,137.508 342.5,138.5C 342.427,140.027 343.094,141.027 344.5,141.5C 345.338,141.842 345.672,142.508 345.5,143.5C 345.427,145.027 346.094,146.027 347.5,146.5C 347.427,148.027 348.094,149.027 349.5,149.5C 350.737,150.965 351.737,152.632 352.5,154.5C 345.576,156.463 338.243,157.13 330.5,156.5C 326.848,150.536 323.181,144.536 319.5,138.5C 319.715,136.821 319.048,135.821 317.5,135.5C 316.167,133.167 314.833,130.833 313.5,128.5C 313.715,126.821 313.048,125.821 311.5,125.5C 310.662,125.158 310.328,124.492 310.5,123.5C 304.099,122.174 297.599,122.174 291,123.5C 290.5,134.495 290.333,145.495 290.5,156.5C 284.167,156.5 277.833,156.5 271.5,156.5C 270.336,123.336 270.169,90.0025 271,56.5C 288.426,55.3418 305.926,55.1751 323.5,56C 330.549,57.853 336.216,61.6863 340.5,67.5 Z M 319.5,74.5 C 327.383,80.6446 329.716,88.6446 326.5,98.5C 325.094,98.9731 324.427,99.9731 324.5,101.5C 323.833,101.5 323.5,101.833 323.5,102.5C 321.973,102.427 320.973,103.094 320.5,104.5C 319.833,104.5 319.167,104.5 318.5,104.5C 309.5,104.5 300.5,104.5 291.5,104.5C 291.334,94.4944 291.5,84.4944 292,74.5C 301.117,73.2638 310.284,73.2638 319.5,74.5 Z"/></g>
<g><path style="opacity:1" fill="#0fbd9a" d="M 631.5,56.5 C 632.5,56.8333 633.167,57.5 633.5,58.5C 633.738,60.4044 634.738,61.7377 636.5,62.5C 638.633,64.0905 640.299,66.0905 641.5,68.5C 641.738,70.4044 642.738,71.7377 644.5,72.5C 646.633,74.0905 648.299,76.0905 649.5,78.5C 649.427,80.0269 650.094,81.0269 651.5,81.5C 652.5,81.8333 653.167,82.5 653.5,83.5C 653.427,85.0269 654.094,86.0269 655.5,86.5C 656.5,86.8333 657.167,87.5 657.5,88.5C 657.427,90.0269 658.094,91.0269 659.5,91.5C 661.633,93.0905 663.299,95.0905 664.5,97.5C 664.738,99.4044 665.738,100.738 667.5,101.5C 668.5,101.833 669.167,102.5 669.5,103.5C 669.427,105.027 670.094,106.027 671.5,106.5C 672.5,106.833 673.167,107.5 673.5,108.5C 673.427,110.027 674.094,111.027 675.5,111.5C 676.5,111.833 677.167,112.5 677.5,113.5C 677.427,115.027 678.094,116.027 679.5,116.5C 680.5,116.833 681.167,117.5 681.5,118.5C 681.5,118.833 681.5,119.167 681.5,119.5C 681.821,121.048 682.821,121.715 684.5,121.5C 684.5,99.8333 684.5,78.1667 684.5,56.5C 690.833,56.5 697.167,56.5 703.5,56.5C 703.5,89.8333 703.5,123.167 703.5,156.5C 697.441,156.746 691.441,156.413 685.5,155.5C 669.5,135.5 653.5,115.5 637.5,95.5C 637.167,94.8333 636.833,94.1667 636.5,93.5C 636.44,92.9569 636.107,92.6236 635.5,92.5C 634.5,113.823 634.167,135.156 634.5,156.5C 628.5,156.5 622.5,156.5 616.5,156.5C 616.5,123.167 616.5,89.8333 616.5,56.5C 621.5,56.5 626.5,56.5 631.5,56.5 Z"/></g>
<g><path style="opacity:1" fill="#1bbf9c" d="M 724.5,56.5 C 741.854,56.2541 759.187,56.5874 776.5,57.5C 786.399,59.45 794.399,64.45 800.5,72.5C 800.427,74.0269 801.094,75.0269 802.5,75.5C 802.427,77.0269 803.094,78.0269 804.5,78.5C 805.674,79.5137 806.34,80.847 806.5,82.5C 807.457,87.0321 808.79,91.3654 810.5,95.5C 815.453,119.802 807.453,138.636 786.5,152C 781.113,154.596 775.447,156.096 769.5,156.5C 754.5,156.5 739.5,156.5 724.5,156.5C 724.5,123.167 724.5,89.8333 724.5,56.5 Z M 744.5,73.5 C 755.818,72.7358 766.818,74.0692 777.5,77.5C 778.585,79.5869 780.251,80.9202 782.5,81.5C 782.5,81.8333 782.5,82.1667 782.5,82.5C 782.833,83.5 783.5,84.1667 784.5,84.5C 790.167,94.8465 791.834,105.846 789.5,117.5C 788.463,118.93 787.796,120.597 787.5,122.5C 785.567,126.698 782.901,130.365 779.5,133.5C 777.973,133.427 776.973,134.094 776.5,135.5C 772.89,136.703 769.223,137.703 765.5,138.5C 758.5,138.5 751.5,138.5 744.5,138.5C 744.5,116.833 744.5,95.1667 744.5,73.5 Z"/></g>
<g><path style="opacity:1" fill="#18be9b" d="M 883.5,58.5 C 886.008,62.1822 888.008,66.1822 889.5,70.5C 889.427,72.0269 890.094,73.0269 891.5,73.5C 891.5,73.8333 891.5,74.1667 891.5,74.5C 891.427,76.0269 892.094,77.0269 893.5,77.5C 898.008,85.1823 902.008,93.1823 905.5,101.5C 905.427,103.027 906.094,104.027 907.5,104.5C 909.008,106.181 910.008,108.181 910.5,110.5C 911.86,113.015 912.86,112.682 913.5,109.5C 913.5,109.167 913.5,108.833 913.5,108.5C 914.906,108.027 915.573,107.027 915.5,105.5C 920.898,94.37 926.565,83.37 932.5,72.5C 933.906,72.0269 934.573,71.0269 934.5,69.5C 935.992,65.1822 937.992,61.1822 940.5,57.5C 947.746,56.536 955.08,56.2027 962.5,56.5C 962.5,89.8333 962.5,123.167 962.5,156.5C 956.167,156.5 949.833,156.5 943.5,156.5C 943.833,134.823 943.5,113.156 942.5,91.5C 941.702,91.9569 941.369,92.6236 941.5,93.5C 933.894,109.213 925.894,124.713 917.5,140C 913.459,140.827 909.459,140.66 905.5,139.5C 899.883,129.265 894.55,118.932 889.5,108.5C 889.715,106.821 889.048,105.821 887.5,105.5C 885.539,101.915 883.872,98.2487 882.5,94.5C 882.585,93.0047 881.919,92.0047 880.5,91.5C 879.5,113.156 879.167,134.823 879.5,156.5C 873.167,156.5 866.833,156.5 860.5,156.5C 860.5,123.167 860.5,89.8333 860.5,56.5C 867.508,56.3337 874.508,56.5004 881.5,57C 882.044,57.7172 882.711,58.2172 883.5,58.5 Z"/></g>
<g><path style="opacity:1" fill="#17be9b" d="M 435.5,73.5 C 419.167,73.5 402.833,73.5 386.5,73.5C 386.5,81.1667 386.5,88.8333 386.5,96.5C 400.504,96.3334 414.504,96.5001 428.5,97C 429.825,102.599 429.825,108.099 428.5,113.5C 414.167,113.5 399.833,113.5 385.5,113.5C 385.5,122.167 385.5,130.833 385.5,139.5C 402.5,139.5 419.5,139.5 436.5,139.5C 437.833,145.167 437.833,150.833 436.5,156.5C 413.167,156.5 389.833,156.5 366.5,156.5C 366.5,123.167 366.5,89.8333 366.5,56.5C 389.5,56.5 412.5,56.5 435.5,56.5C 435.5,62.1667 435.5,67.8333 435.5,73.5 Z"/></g>
<g><path style="opacity:0.598" fill="#7eddca" d="M 473.5,56.5 C 466.5,56.5 459.5,56.5 452.5,56.5C 452.5,89.8333 452.5,123.167 452.5,156.5C 458.5,156.5 464.5,156.5 470.5,156.5C 470.833,156.5 471.167,156.5 471.5,156.5C 465.021,157.491 458.354,157.824 451.5,157.5C 451.5,123.5 451.5,89.5 451.5,55.5C 459.019,55.175 466.352,55.5084 473.5,56.5 Z"/></g>
<g><path style="opacity:1" fill="#17be9b" d="M 473.5,56.5 C 475.008,58.1815 476.008,60.1815 476.5,62.5C 476.427,64.0269 477.094,65.0269 478.5,65.5C 482.008,71.1823 485.008,77.1823 487.5,83.5C 487.427,85.0269 488.094,86.0269 489.5,86.5C 493.988,94.8063 498.488,103.14 503,111.5C 504.608,107.944 506.441,104.611 508.5,101.5C 509.906,101.027 510.573,100.027 510.5,98.5C 512.326,93.5156 514.659,88.8489 517.5,84.5C 518.906,84.0269 519.573,83.0269 519.5,81.5C 523.087,72.6556 527.42,64.3223 532.5,56.5C 539.5,56.5 546.5,56.5 553.5,56.5C 553.5,89.8333 553.5,123.167 553.5,156.5C 547.167,156.5 540.833,156.5 534.5,156.5C 534.667,134.831 534.5,113.164 534,91.5C 532.961,92.2438 532.461,93.2438 532.5,94.5C 524.788,109.788 516.788,124.955 508.5,140C 504.833,140.667 501.167,140.667 497.5,140C 496.177,139.184 495.511,138.017 495.5,136.5C 495.715,134.821 495.048,133.821 493.5,133.5C 493.5,133.167 493.5,132.833 493.5,132.5C 493.715,130.821 493.048,129.821 491.5,129.5C 488.82,124.14 486.153,118.807 483.5,113.5C 483.715,111.821 483.048,110.821 481.5,110.5C 478.399,105.395 475.733,100.062 473.5,94.5C 473.443,93.391 473.11,92.391 472.5,91.5C 472.44,90.9569 472.107,90.6236 471.5,90.5C 470.5,112.49 470.167,134.49 470.5,156.5C 464.5,156.5 458.5,156.5 452.5,156.5C 452.5,123.167 452.5,89.8333 452.5,56.5C 459.5,56.5 466.5,56.5 473.5,56.5 Z"/></g>
<g><path style="opacity:0.527" fill="#85dfce" d="M 532.5,56.5 C 539.648,55.5084 546.981,55.175 554.5,55.5C 554.5,89.5 554.5,123.5 554.5,157.5C 547.646,157.824 540.979,157.491 534.5,156.5C 540.833,156.5 547.167,156.5 553.5,156.5C 553.5,123.167 553.5,89.8333 553.5,56.5C 546.5,56.5 539.5,56.5 532.5,56.5 Z"/></g>
<g><path style="opacity:0.477" fill="#85e0cf" d="M 594.5,55.5 C 594.5,55.8333 594.5,56.1667 594.5,56.5C 588.167,56.5 581.833,56.5 575.5,56.5C 575.5,89.8333 575.5,123.167 575.5,156.5C 575.167,156.5 574.833,156.5 574.5,156.5C 574.5,122.833 574.5,89.1667 574.5,55.5C 581.167,55.5 587.833,55.5 594.5,55.5 Z"/></g>
<g><path style="opacity:1" fill="#02bd99" d="M 594.5,56.5 C 594.5,89.8333 594.5,123.167 594.5,156.5C 588.167,156.5 581.833,156.5 575.5,156.5C 575.5,123.167 575.5,89.8333 575.5,56.5C 581.833,56.5 588.167,56.5 594.5,56.5 Z"/></g>
<g><path style="opacity:0.179" fill="#d1f3ec" d="M 594.5,55.5 C 595.498,89.3292 595.832,123.329 595.5,157.5C 588.313,157.825 581.313,157.491 574.5,156.5C 574.833,156.5 575.167,156.5 575.5,156.5C 581.833,156.5 588.167,156.5 594.5,156.5C 594.5,123.167 594.5,89.8333 594.5,56.5C 594.5,56.1667 594.5,55.8333 594.5,55.5 Z"/></g>
<g><path style="opacity:0.688" fill="#99e3d3" d="M 631.5,56.5 C 626.5,56.5 621.5,56.5 616.5,56.5C 616.5,89.8333 616.5,123.167 616.5,156.5C 622.5,156.5 628.5,156.5 634.5,156.5C 634.833,156.5 635.167,156.5 635.5,156.5C 629.013,157.654 622.346,157.821 615.5,157C 614.878,155.431 614.544,153.764 614.5,152C 614.564,120.183 614.731,88.3498 615,56.5C 620.599,55.1752 626.099,55.1752 631.5,56.5 Z"/></g>
<g><path style="opacity:0.09" fill="#e9f9f6" d="M 683.5,56.5 C 683.667,77.8359 683.5,99.1693 683,120.5C 682.617,119.944 682.117,119.611 681.5,119.5C 681.5,119.167 681.5,118.833 681.5,118.5C 682.167,97.8333 682.833,77.1667 683.5,56.5 Z"/></g>
<g><path style="opacity:0.149" fill="#d0f3ec" d="M 683.5,56.5 C 690.313,55.5088 697.313,55.1755 704.5,55.5C 704.832,89.3375 704.498,123.004 703.5,156.5C 703.5,123.167 703.5,89.8333 703.5,56.5C 697.167,56.5 690.833,56.5 684.5,56.5C 684.167,56.5 683.833,56.5 683.5,56.5 Z"/></g>
<g><path style="opacity:0.145" fill="#d6f4ef" d="M 724.5,55.5 C 724.5,55.8333 724.5,56.1667 724.5,56.5C 724.5,89.8333 724.5,123.167 724.5,156.5C 739.5,156.5 754.5,156.5 769.5,156.5C 754.342,157.496 739.009,157.83 723.5,157.5C 723.168,123.329 723.502,89.3292 724.5,55.5 Z"/></g>
<g><path style="opacity:0.233" fill="#c2efe7" d="M 962.5,55.5 C 963.498,89.3292 963.832,123.329 963.5,157.5C 956.313,157.825 949.313,157.491 942.5,156.5C 942.833,156.5 943.167,156.5 943.5,156.5C 949.833,156.5 956.167,156.5 962.5,156.5C 962.5,123.167 962.5,89.8333 962.5,56.5C 962.5,56.1667 962.5,55.8333 962.5,55.5 Z"/></g>
<g><path style="opacity:0.72" fill="#8de0ce" d="M 1004.5,73.5 C 1004.17,73.5 1003.83,73.5 1003.5,73.5C 1019.66,72.5036 1035.99,72.1702 1052.5,72.5C 1052.5,67.1667 1052.5,61.8333 1052.5,56.5C 1029.83,56.5 1007.17,56.5 984.5,56.5C 984.5,89.8333 984.5,123.167 984.5,156.5C 984.167,156.5 983.833,156.5 983.5,156.5C 982.336,123.336 982.169,90.0025 983,56.5C 1006.43,55.5058 1029.93,55.1725 1053.5,55.5C 1053.5,61.5 1053.5,67.5 1053.5,73.5C 1037.17,73.5 1020.83,73.5 1004.5,73.5 Z"/></g>
<g><path style="opacity:1" fill="#03bd99" d="M 1003.5,73.5 C 1003.5,81.5 1003.5,89.5 1003.5,97.5C 1017.5,97.5 1031.5,97.5 1045.5,97.5C 1045.5,102.833 1045.5,108.167 1045.5,113.5C 1031.5,113.5 1017.5,113.5 1003.5,113.5C 1003.5,122.167 1003.5,130.833 1003.5,139.5C 1020.34,139.17 1037.01,139.503 1053.5,140.5C 1053.5,145.833 1053.5,151.167 1053.5,156.5C 1030.5,156.5 1007.5,156.5 984.5,156.5C 984.5,123.167 984.5,89.8333 984.5,56.5C 1007.17,56.5 1029.83,56.5 1052.5,56.5C 1052.5,61.8333 1052.5,67.1667 1052.5,72.5C 1035.99,72.1702 1019.66,72.5036 1003.5,73.5 Z"/></g>
<g><path style="opacity:0.861" fill="#37cbaf" d="M 683.5,56.5 C 683.833,56.5 684.167,56.5 684.5,56.5C 684.5,78.1667 684.5,99.8333 684.5,121.5C 682.821,121.715 681.821,121.048 681.5,119.5C 682.117,119.611 682.617,119.944 683,120.5C 683.5,99.1693 683.667,77.8359 683.5,56.5 Z"/></g>
<g><path style="opacity:0.694" fill="#aae7da" d="M 633.5,58.5 C 635.262,59.2623 636.262,60.5956 636.5,62.5C 634.738,61.7377 633.738,60.4044 633.5,58.5 Z"/></g>
<g><path style="opacity:0.299" fill="#cbf1eb" d="M 70.5,99.5 C 70.5,86.8333 70.5,74.1667 70.5,61.5C 57.5,61.5 44.5,61.5 31.5,61.5C 31.5,101.167 31.5,140.833 31.5,180.5C 31.1734,189.682 31.5067,198.682 32.5,207.5C 32.719,208.675 32.3857,209.675 31.5,210.5C 30.5001,160.504 30.1667,110.504 30.5,60.5C 43.891,60.6103 57.2244,60.4436 70.5,60C 71.8298,73.2646 71.8298,86.4312 70.5,99.5 Z"/></g>
<g><path style="opacity:0.993" fill="#74dac8" d="M 70.5,99.5 C 58.1354,107.382 49.6354,118.382 45,132.5C 44.2652,134.871 43.4318,137.205 42.5,139.5C 42.9698,140.463 43.6365,140.463 44.5,139.5C 44.573,141.027 43.9063,142.027 42.5,142.5C 40.8952,146.605 39.0619,150.605 37,154.5C 34.648,163.193 32.8146,171.86 31.5,180.5C 31.5,140.833 31.5,101.167 31.5,61.5C 44.5,61.5 57.5,61.5 70.5,61.5C 70.5,74.1667 70.5,86.8333 70.5,99.5 Z"/></g>
<g><path style="opacity:0.235" fill="#bfeee4" d="M 476.5,62.5 C 477.906,62.9731 478.573,63.9731 478.5,65.5C 477.094,65.0269 476.427,64.0269 476.5,62.5 Z"/></g>
<g><path style="opacity:0.855" fill="#7ddac5" d="M 130.5,64.5 C 129.089,66.914 127.089,68.5806 124.5,69.5C 125.911,67.086 127.911,65.4194 130.5,64.5 Z"/></g>
<g><path style="opacity:0.831" fill="#94e1d0" d="M 340.5,67.5 C 342.262,68.2623 343.262,69.5956 343.5,71.5C 341.738,70.7377 340.738,69.4044 340.5,67.5 Z"/></g>
<g><path style="opacity:0.659" fill="#ace8db" d="M 641.5,68.5 C 643.262,69.2623 644.262,70.5956 644.5,72.5C 642.738,71.7377 641.738,70.4044 641.5,68.5 Z"/></g>
<g><path style="opacity:0.239" fill="#bbece2" d="M 934.5,69.5 C 934.573,71.0269 933.906,72.0269 932.5,72.5C 932.427,70.9731 933.094,69.9731 934.5,69.5 Z"/></g>
<g><path style="opacity:0.847" fill="#84ddc9" d="M 124.5,69.5 C 123.415,71.5869 121.749,72.9202 119.5,73.5C 120.585,71.4131 122.251,70.0798 124.5,69.5 Z"/></g>
<g><path style="opacity:0.161" fill="#c7f0e7" d="M 889.5,70.5 C 890.906,70.9731 891.573,71.9731 891.5,73.5C 890.094,73.0269 889.427,72.0269 889.5,70.5 Z"/></g>
<g><path style="opacity:0.605" fill="#95e2d2" d="M 319.5,74.5 C 310.284,73.2638 301.117,73.2638 292,74.5C 291.5,84.4944 291.334,94.4944 291.5,104.5C 300.5,104.5 309.5,104.5 318.5,104.5C 309.348,105.494 300.015,105.827 290.5,105.5C 290.333,94.8281 290.5,84.1615 291,73.5C 299.421,72.351 307.921,72.1843 316.5,73C 317.737,73.2321 318.737,73.7321 319.5,74.5 Z"/></g>
<g><path style="opacity:0.455" fill="#a1e6d7" d="M 800.5,72.5 C 801.906,72.9731 802.573,73.9731 802.5,75.5C 801.094,75.0269 800.427,74.0269 800.5,72.5 Z"/></g>
<g><path style="opacity:0.835" fill="#84dcc8" d="M 119.5,73.5 C 118.089,75.914 116.089,77.5806 113.5,78.5C 114.911,76.086 116.911,74.4194 119.5,73.5 Z"/></g>
<g><path style="opacity:0.255" fill="#bdede3" d="M 891.5,74.5 C 892.906,74.9731 893.573,75.9731 893.5,77.5C 892.094,77.0269 891.427,76.0269 891.5,74.5 Z"/></g>
<g><path style="opacity:0.455" fill="#9ce4d5" d="M 802.5,75.5 C 803.906,75.9731 804.573,76.9731 804.5,78.5C 803.094,78.0269 802.427,77.0269 802.5,75.5 Z"/></g>
<g><path style="opacity:0.976" fill="#81dbc7" d="M 345.5,75.5 C 347.472,78.0836 348.472,81.0836 348.5,84.5C 346.69,81.855 345.69,78.855 345.5,75.5 Z"/></g>
<g><path style="opacity:0.471" fill="#ade9db" d="M 777.5,77.5 C 779.749,78.0798 781.415,79.4131 782.5,81.5C 780.251,80.9202 778.585,79.5869 777.5,77.5 Z"/></g>
<g><path style="opacity:0.467" fill="#a3e6d8" d="M 649.5,78.5 C 650.906,78.9731 651.573,79.9731 651.5,81.5C 650.094,81.0269 649.427,80.0269 649.5,78.5 Z"/></g>
<g><path style="opacity:0.518" fill="#bdede2" d="M 782.5,82.5 C 783.833,82.5 784.5,83.1667 784.5,84.5C 783.5,84.1667 782.833,83.5 782.5,82.5 Z"/></g>
<g><path style="opacity:0.286" fill="#b4ebdf" d="M 519.5,81.5 C 519.573,83.0269 518.906,84.0269 517.5,84.5C 517.427,82.9731 518.094,81.9731 519.5,81.5 Z"/></g>
<g><path style="opacity:0.867" fill="#87ddca" d="M 109.5,81.5 C 108.415,83.5869 106.749,84.9202 104.5,85.5C 105.585,83.4131 107.251,82.0798 109.5,81.5 Z"/></g>
<g><path style="opacity:0.643" fill="#a5e6d8" d="M 653.5,83.5 C 654.906,83.9731 655.573,84.9731 655.5,86.5C 654.094,86.0269 653.427,85.0269 653.5,83.5 Z"/></g>
<g><path style="opacity:0.192" fill="#c3efe6" d="M 487.5,83.5 C 488.906,83.9731 489.573,84.9731 489.5,86.5C 488.094,86.0269 487.427,85.0269 487.5,83.5 Z"/></g>
<g><path style="opacity:0.976" fill="#90dfcd" d="M 806.5,82.5 C 809.013,86.3778 810.346,90.7112 810.5,95.5C 808.79,91.3654 807.457,87.0321 806.5,82.5 Z"/></g>
<g><path style="opacity:0.906" fill="#82dbc7" d="M 104.5,85.5 C 103.415,87.5869 101.749,88.9202 99.5,89.5C 100.585,87.4131 102.251,86.0798 104.5,85.5 Z"/></g>
<g><path style="opacity:0.6" fill="#a8e8d9" d="M 657.5,88.5 C 658.906,88.9731 659.573,89.9731 659.5,91.5C 658.094,91.0269 657.427,90.0269 657.5,88.5 Z"/></g>
<g><path style="opacity:0.906" fill="#7cdac5" d="M 99.5,89.5 C 98.4154,91.5869 96.7488,92.9202 94.5,93.5C 95.5846,91.4131 97.2512,90.0798 99.5,89.5 Z"/></g>
<g><path style="opacity:0.853" fill="#34cbae" d="M 472.5,91.5 C 471.503,112.994 471.169,134.66 471.5,156.5C 471.167,156.5 470.833,156.5 470.5,156.5C 470.167,134.49 470.5,112.49 471.5,90.5C 472.107,90.6236 472.44,90.9569 472.5,91.5 Z"/></g>
<g><path style="opacity:0.576" fill="#83decc" d="M 882.5,94.5 C 881.883,94.3893 881.383,94.056 881,93.5C 880.5,114.831 880.333,136.164 880.5,157.5C 873.646,157.824 866.979,157.491 860.5,156.5C 866.833,156.5 873.167,156.5 879.5,156.5C 879.167,134.823 879.5,113.156 880.5,91.5C 881.919,92.0047 882.585,93.0047 882.5,94.5 Z"/></g>
<g><path style="opacity:0.102" fill="#e4f7f4" d="M 472.5,91.5 C 473.11,92.391 473.443,93.391 473.5,94.5C 472.833,115.167 472.167,135.833 471.5,156.5C 471.169,134.66 471.503,112.994 472.5,91.5 Z"/></g>
<g><path style="opacity:0.188" fill="#cef2eb" d="M 534.5,156.5 C 533.833,135.833 533.167,115.167 532.5,94.5C 532.461,93.2438 532.961,92.2438 534,91.5C 534.5,113.164 534.667,134.831 534.5,156.5 Z"/></g>
<g><path style="opacity:0.771" fill="#42cdb3" d="M 636.5,93.5 C 635.503,114.327 635.169,135.327 635.5,156.5C 635.167,156.5 634.833,156.5 634.5,156.5C 634.167,135.156 634.5,113.823 635.5,92.5C 636.107,92.6236 636.44,92.9569 636.5,93.5 Z"/></g>
<g><path style="opacity:0.028" fill="#f7fcfb" d="M 636.5,93.5 C 636.833,94.1667 637.167,94.8333 637.5,95.5C 636.833,115.833 636.167,136.167 635.5,156.5C 635.169,135.327 635.503,114.327 636.5,93.5 Z"/></g>
<g><path style="opacity:0.456" fill="#90e2d3" d="M 943.5,156.5 C 943.167,156.5 942.833,156.5 942.5,156.5C 942.831,135.327 942.497,114.327 941.5,93.5C 941.369,92.6236 941.702,91.9569 942.5,91.5C 943.5,113.156 943.833,134.823 943.5,156.5 Z"/></g>
<g><path style="opacity:0.274" fill="#bcede4" d="M 1003.5,73.5 C 1003.83,73.5 1004.17,73.5 1004.5,73.5C 1004.5,81.1667 1004.5,88.8333 1004.5,96.5C 1018.5,96.5 1032.5,96.5 1046.5,96.5C 1046.5,102.167 1046.5,107.833 1046.5,113.5C 1046.17,113.5 1045.83,113.5 1045.5,113.5C 1045.5,108.167 1045.5,102.833 1045.5,97.5C 1031.5,97.5 1017.5,97.5 1003.5,97.5C 1003.5,89.5 1003.5,81.5 1003.5,73.5 Z"/></g>
<g><path style="opacity:0.769" fill="#9de4d4" d="M 664.5,97.5 C 666.262,98.2623 667.262,99.5956 667.5,101.5C 665.738,100.738 664.738,99.4044 664.5,97.5 Z"/></g>
<g><path style="opacity:0.999" fill="#76dbc9" d="M 221.5,162.5 C 220.094,162.973 219.427,163.973 219.5,165.5C 208.21,181.087 196.21,196.087 183.5,210.5C 166.833,210.5 150.167,210.5 133.5,210.5C 141.289,200.873 149.289,191.373 157.5,182C 156.748,181.329 156.414,180.496 156.5,179.5C 157.117,179.611 157.617,179.944 158,180.5C 159.331,178.004 161.164,176.004 163.5,174.5C 165.587,173.415 166.92,171.749 167.5,169.5C 169.914,168.089 171.581,166.089 172.5,163.5C 179.131,154.868 186.131,146.535 193.5,138.5C 195.587,137.415 196.92,135.749 197.5,133.5C 204.154,124.849 211.154,116.516 218.5,108.5C 220.587,107.415 221.92,105.749 222.5,103.5C 223.273,100.213 225.273,98.7135 228.5,99C 237.5,106 246.5,113 255.5,120C 244.683,134.643 233.349,148.81 221.5,162.5 Z"/></g>
<g><path style="opacity:0.529" fill="#97e3d2" d="M 326.5,98.5 C 326.573,100.027 325.906,101.027 324.5,101.5C 324.427,99.9731 325.094,98.9731 326.5,98.5 Z"/></g>
<g><path style="opacity:0.231" fill="#bcede3" d="M 510.5,98.5 C 510.573,100.027 509.906,101.027 508.5,101.5C 508.427,99.9731 509.094,98.9731 510.5,98.5 Z"/></g>
<g><path style="opacity:0.616" fill="#9be4d4" d="M 323.5,102.5 C 323.027,103.906 322.027,104.573 320.5,104.5C 320.973,103.094 321.973,102.427 323.5,102.5 Z"/></g>
<g><path style="opacity:0.275" fill="#b7ebe0" d="M 905.5,101.5 C 906.906,101.973 907.573,102.973 907.5,104.5C 906.094,104.027 905.427,103.027 905.5,101.5 Z"/></g>
<g><path style="opacity:0.639" fill="#a6e6d8" d="M 669.5,103.5 C 670.906,103.973 671.573,104.973 671.5,106.5C 670.094,106.027 669.427,105.027 669.5,103.5 Z"/></g>
<g><path style="opacity:0.776" fill="#a3e5d6" d="M 887.5,105.5 C 889.048,105.821 889.715,106.821 889.5,108.5C 888.599,107.71 887.932,106.71 887.5,105.5 Z"/></g>
<g><path style="opacity:0.561" fill="#c6f0e8" d="M 222.5,103.5 C 221.92,105.749 220.587,107.415 218.5,108.5C 219.08,106.251 220.413,104.585 222.5,103.5 Z"/></g>
<g><path style="opacity:0.749" fill="#8fe0ce" d="M 80.5,104.5 C 79.0892,106.914 77.0892,108.581 74.5,109.5C 75.9108,107.086 77.9108,105.419 80.5,104.5 Z"/></g>
<g><path style="opacity:0.212" fill="#c0eee4" d="M 915.5,105.5 C 915.573,107.027 914.906,108.027 913.5,108.5C 913.427,106.973 914.094,105.973 915.5,105.5 Z"/></g>
<g><path style="opacity:0.62" fill="#b5ebdf" d="M 141.5,113.5 C 141.591,111.302 140.925,110.969 139.5,112.5C 140.048,110.606 141.048,108.94 142.5,107.5C 142.833,107.833 143.167,108.167 143.5,108.5C 142.972,110.336 142.306,112.003 141.5,113.5 Z"/></g>
<g><path style="opacity:0.839" fill="#99e2d1" d="M 481.5,110.5 C 483.048,110.821 483.715,111.821 483.5,113.5C 482.599,112.71 481.932,111.71 481.5,110.5 Z"/></g>
<g><path style="opacity:0.416" fill="#ade9dc" d="M 673.5,108.5 C 674.906,108.973 675.573,109.973 675.5,111.5C 674.094,111.027 673.427,110.027 673.5,108.5 Z"/></g>
<g><path style="opacity:0.396" fill="#a9e7da" d="M 913.5,109.5 C 912.86,112.682 911.86,113.015 910.5,110.5C 911.609,110.443 912.609,110.11 913.5,109.5 Z"/></g>
<g><path style="opacity:0.89" fill="#8bdecc" d="M 74.5,109.5 C 73.0892,111.914 71.0892,113.581 68.5,114.5C 69.9108,112.086 71.9108,110.419 74.5,109.5 Z"/></g>
<g><path style="opacity:0.104" fill="#e5f8f4" d="M 1045.5,113.5 C 1045.83,113.5 1046.17,113.5 1046.5,113.5C 1032.68,114.496 1018.68,114.829 1004.5,114.5C 1004.5,122.5 1004.5,130.5 1004.5,138.5C 1021.53,137.848 1038.2,138.515 1054.5,140.5C 1054.17,140.5 1053.83,140.5 1053.5,140.5C 1037.01,139.503 1020.34,139.17 1003.5,139.5C 1003.5,130.833 1003.5,122.167 1003.5,113.5C 1017.5,113.5 1031.5,113.5 1045.5,113.5 Z"/></g>
<g><path style="opacity:0.553" fill="#b0eade" d="M 677.5,113.5 C 678.906,113.973 679.573,114.973 679.5,116.5C 678.094,116.027 677.427,115.027 677.5,113.5 Z"/></g>
<g><path style="opacity:0.29" fill="#caf1e9" d="M 428.5,113.5 C 414.677,114.496 400.677,114.829 386.5,114.5C 386.5,122.5 386.5,130.5 386.5,138.5C 403.342,138.17 420.008,138.503 436.5,139.5C 419.5,139.5 402.5,139.5 385.5,139.5C 385.5,130.833 385.5,122.167 385.5,113.5C 399.833,113.5 414.167,113.5 428.5,113.5 Z"/></g>
<g><path style="opacity:1" fill="#53caad" d="M 141.5,113.5 C 138.001,120.673 133.001,126.673 126.5,131.5C 126.5,130.5 126.5,129.5 126.5,128.5C 125.5,128.5 124.5,128.5 123.5,128.5C 125.239,125.757 127.573,123.757 130.5,122.5C 133.573,120.431 135.906,117.764 137.5,114.5C 137.833,113.5 138.5,112.833 139.5,112.5C 140.925,110.969 141.591,111.302 141.5,113.5 Z"/></g>
<g><path style="opacity:0.576" fill="#a5e6d8" d="M 137.5,114.5 C 135.906,117.764 133.573,120.431 130.5,122.5C 132.094,119.236 134.427,116.569 137.5,114.5 Z"/></g>
<g><path style="opacity:0.843" fill="#87ddca" d="M 65.5,117.5 C 64.4154,119.587 62.7488,120.92 60.5,121.5C 61.5846,119.413 63.2512,118.08 65.5,117.5 Z"/></g>
<g><path style="opacity:0.851" fill="#97e2d1" d="M 789.5,117.5 C 789.88,119.698 789.213,121.365 787.5,122.5C 787.796,120.597 788.463,118.93 789.5,117.5 Z"/></g>
<g><path style="opacity:0.365" fill="#ace8db" d="M 331.5,120.5 C 332.906,120.973 333.573,121.973 333.5,123.5C 332.094,123.027 331.427,122.027 331.5,120.5 Z"/></g>
<g><path style="opacity:0.601" fill="#87dfce" d="M 310.5,123.5 C 304.242,123.19 298.076,123.524 292,124.5C 291.549,135.538 291.382,146.371 291.5,157C 284.654,157.821 277.987,157.654 271.5,156.5C 277.833,156.5 284.167,156.5 290.5,156.5C 290.333,145.495 290.5,134.495 291,123.5C 297.599,122.174 304.099,122.174 310.5,123.5 Z"/></g>
<g><path style="opacity:0.875" fill="#98e1cf" d="M 311.5,125.5 C 313.048,125.821 313.715,126.821 313.5,128.5C 312.599,127.71 311.932,126.71 311.5,125.5 Z"/></g>
<g><path style="opacity:0.396" fill="#a4e6d8" d="M 334.5,125.5 C 335.906,125.973 336.573,126.973 336.5,128.5C 335.094,128.027 334.427,127.027 334.5,125.5 Z"/></g>
<g><path style="opacity:1" fill="#21bf9d" d="M 123.5,128.5 C 124.5,128.5 125.5,128.5 126.5,128.5C 126.5,129.5 126.5,130.5 126.5,131.5C 124.803,133.339 123.137,135.172 121.5,137C 122.65,138.981 123.984,140.814 125.5,142.5C 125.427,144.027 126.094,145.027 127.5,145.5C 128.5,145.833 129.167,146.5 129.5,147.5C 129.738,149.404 130.738,150.738 132.5,151.5C 133.5,151.833 134.167,152.5 134.5,153.5C 135.08,155.749 136.413,157.415 138.5,158.5C 139.5,158.833 140.167,159.5 140.5,160.5C 140.427,162.027 141.094,163.027 142.5,163.5C 143.5,163.833 144.167,164.5 144.5,165.5C 144.738,167.404 145.738,168.738 147.5,169.5C 150.959,172.415 153.959,175.748 156.5,179.5C 156.414,180.496 156.748,181.329 157.5,182C 149.289,191.373 141.289,200.873 133.5,210.5C 132.363,209.211 131.03,208.211 129.5,207.5C 126.815,204.81 124.482,201.81 122.5,198.5C 122.446,196.368 121.446,195.035 119.5,194.5C 119.446,192.368 118.446,191.035 116.5,190.5C 108.845,180.539 101.178,170.539 93.5,160.5C 92.9473,158.448 91.9473,158.115 90.5,159.5C 80.8044,167.188 70.8044,174.521 60.5,181.5C 59.1667,181.5 58.5,180.833 58.5,179.5C 60.7657,175.564 63.7657,172.231 67.5,169.5C 69.7488,168.92 71.4154,167.587 72.5,165.5C 75.5827,162.092 79.2493,159.425 83.5,157.5C 85.0269,157.573 86.0269,156.906 86.5,155.5C 88.0269,155.573 89.0269,154.906 89.5,153.5C 91.0269,153.573 92.0269,152.906 92.5,151.5C 96.5526,148.117 100.886,145.117 105.5,142.5C 107.404,142.262 108.738,141.262 109.5,139.5C 114.128,135.844 118.794,132.178 123.5,128.5 Z"/></g>
<g><path style="opacity:0.875" fill="#97e1cf" d="M 491.5,129.5 C 493.048,129.821 493.715,130.821 493.5,132.5C 492.599,131.71 491.932,130.71 491.5,129.5 Z"/></g>
<g><path style="opacity:0.745" fill="#a3e6d7" d="M 52.5,129.5 C 52.2624,131.404 51.2624,132.738 49.5,133.5C 49.7376,131.596 50.7376,130.262 52.5,129.5 Z"/></g>
<g><path style="opacity:0.431" fill="#9ee4d6" d="M 337.5,130.5 C 338.906,130.973 339.573,131.973 339.5,133.5C 338.094,133.027 337.427,132.027 337.5,130.5 Z"/></g>
<g><path style="opacity:0.859" fill="#9be2d1" d="M 493.5,133.5 C 495.048,133.821 495.715,134.821 495.5,136.5C 494.599,135.71 493.932,134.71 493.5,133.5 Z"/></g>
<g><path style="opacity:0.682" fill="#94e2d2" d="M 779.5,133.5 C 779.027,134.906 778.027,135.573 776.5,135.5C 776.973,134.094 777.973,133.427 779.5,133.5 Z"/></g>
<g><path style="opacity:0.831" fill="#a4e4d5" d="M 317.5,135.5 C 319.048,135.821 319.715,136.821 319.5,138.5C 318.599,137.71 317.932,136.71 317.5,135.5 Z"/></g>
<g><path style="opacity:0.294" fill="#b6ebdf" d="M 339.5,133.5 C 340.906,133.973 341.573,134.973 341.5,136.5C 340.094,136.027 339.427,135.027 339.5,133.5 Z"/></g>
<g><path style="opacity:0.722" fill="#abe8da" d="M 47.5,135.5 C 47.2624,137.404 46.2624,138.738 44.5,139.5C 44.7376,137.596 45.7376,136.262 47.5,135.5 Z"/></g>
<g><path style="opacity:0.553" fill="#c5efe7" d="M 197.5,133.5 C 196.92,135.749 195.587,137.415 193.5,138.5C 194.08,136.251 195.413,134.585 197.5,133.5 Z"/></g>
<g><path style="opacity:0.128" fill="#b9ece2" d="M 744.5,73.5 C 744.5,95.1667 744.5,116.833 744.5,138.5C 751.5,138.5 758.5,138.5 765.5,138.5C 758.352,139.492 751.019,139.825 743.5,139.5C 743.169,117.327 743.503,95.327 744.5,73.5 Z"/></g>
<g><path style="opacity:0.576" fill="#9ee5d5" d="M 109.5,139.5 C 108.738,141.262 107.404,142.262 105.5,142.5C 106.262,140.738 107.596,139.738 109.5,139.5 Z"/></g>
<g><path style="opacity:0.357" fill="#ace9dc" d="M 342.5,138.5 C 343.906,138.973 344.573,139.973 344.5,141.5C 343.094,141.027 342.427,140.027 342.5,138.5 Z"/></g>
<g><path style="opacity:0.561" fill="#aee9dc" d="M 125.5,142.5 C 126.906,142.973 127.573,143.973 127.5,145.5C 126.094,145.027 125.427,144.027 125.5,142.5 Z"/></g>
<g><path style="opacity:0.4" fill="#aae8db" d="M 345.5,143.5 C 346.906,143.973 347.573,144.973 347.5,146.5C 346.094,146.027 345.427,145.027 345.5,143.5 Z"/></g>
<g><path style="opacity:0.749" fill="#a4e6d7" d="M 129.5,147.5 C 131.262,148.262 132.262,149.596 132.5,151.5C 130.738,150.738 129.738,149.404 129.5,147.5 Z"/></g>
<g><path style="opacity:0.247" fill="#bfeee4" d="M 347.5,146.5 C 348.906,146.973 349.573,147.973 349.5,149.5C 348.094,149.027 347.427,148.027 347.5,146.5 Z"/></g>
<g><path style="opacity:0.667" fill="#9ae4d4" d="M 92.5,151.5 C 92.0269,152.906 91.0269,153.573 89.5,153.5C 89.9731,152.094 90.9731,151.427 92.5,151.5 Z"/></g>
<g><path style="opacity:0.663" fill="#9de4d6" d="M 89.5,153.5 C 89.0269,154.906 88.0269,155.573 86.5,155.5C 86.9731,154.094 87.9731,153.427 89.5,153.5 Z"/></g>
<g><path style="opacity:0.702" fill="#ade8db" d="M 134.5,153.5 C 136.587,154.585 137.92,156.251 138.5,158.5C 136.413,157.415 135.08,155.749 134.5,153.5 Z"/></g>
<g><path style="opacity:0.608" fill="#a1e6d7" d="M 86.5,155.5 C 86.0269,156.906 85.0269,157.573 83.5,157.5C 83.9731,156.094 84.9731,155.427 86.5,155.5 Z"/></g>
<g><path style="opacity:0.227" fill="#c5efe7" d="M 352.5,154.5 C 353.404,155.209 353.737,156.209 353.5,157.5C 345.648,157.825 337.982,157.492 330.5,156.5C 338.243,157.13 345.576,156.463 352.5,154.5 Z"/></g>
<g><path style="opacity:0.234" fill="#b5ebe1" d="M 435.5,73.5 C 435.5,67.8333 435.5,62.1667 435.5,56.5C 412.5,56.5 389.5,56.5 366.5,56.5C 366.5,89.8333 366.5,123.167 366.5,156.5C 389.833,156.5 413.167,156.5 436.5,156.5C 413.006,157.498 389.339,157.831 365.5,157.5C 365.5,123.5 365.5,89.5 365.5,55.5C 389.167,55.5 412.833,55.5 436.5,55.5C 436.823,61.69 436.49,67.69 435.5,73.5 Z"/></g>
<g><path style="opacity:0.228" fill="#c5efe7" d="M 685.5,155.5 C 691.441,156.413 697.441,156.746 703.5,156.5C 698.015,157.652 692.349,157.818 686.5,157C 685.944,156.617 685.611,156.117 685.5,155.5 Z"/></g>
<g><path style="opacity:0.236" fill="#bbede3" d="M 1053.5,140.5 C 1053.83,140.5 1054.17,140.5 1054.5,140.5C 1054.5,146.167 1054.5,151.833 1054.5,157.5C 1030.66,157.831 1006.99,157.498 983.5,156.5C 983.833,156.5 984.167,156.5 984.5,156.5C 1007.5,156.5 1030.5,156.5 1053.5,156.5C 1053.5,151.167 1053.5,145.833 1053.5,140.5 Z"/></g>
<g><path style="opacity:0.02" fill="#d8f5ef" d="M 90.5,159.5 C 91.9473,158.115 92.9473,158.448 93.5,160.5C 92.609,159.89 91.609,159.557 90.5,159.5 Z"/></g>
<g><path style="opacity:0.671" fill="#a1e5d6" d="M 140.5,160.5 C 141.906,160.973 142.573,161.973 142.5,163.5C 141.094,163.027 140.427,162.027 140.5,160.5 Z"/></g>
<g><path style="opacity:0.012" fill="#e4f7f4" d="M 221.5,162.5 C 221.573,164.027 220.906,165.027 219.5,165.5C 219.427,163.973 220.094,162.973 221.5,162.5 Z"/></g>
<g><path style="opacity:0.8" fill="#9be3d3" d="M 144.5,165.5 C 146.262,166.262 147.262,167.596 147.5,169.5C 145.738,168.738 144.738,167.404 144.5,165.5 Z"/></g>
<g><path style="opacity:0.573" fill="#c8f0e9" d="M 172.5,163.5 C 171.581,166.089 169.914,168.089 167.5,169.5C 168.419,166.911 170.086,164.911 172.5,163.5 Z"/></g>
<g><path style="opacity:0.851" fill="#85ddc9" d="M 72.5,165.5 C 71.4154,167.587 69.7488,168.92 67.5,169.5C 68.5846,167.413 70.2512,166.08 72.5,165.5 Z"/></g>
<g><path style="opacity:0.588" fill="#c3efe7" d="M 167.5,169.5 C 166.92,171.749 165.587,173.415 163.5,174.5C 164.08,172.251 165.413,170.585 167.5,169.5 Z"/></g>
<g><path style="opacity:0.188" fill="#d2f3ec" d="M 58.5,179.5 C 58.5,180.833 59.1667,181.5 60.5,181.5C 56.2529,185.484 55.5862,184.817 58.5,179.5 Z"/></g>
<g><path style="opacity:0.902" fill="#9be2d1" d="M 116.5,190.5 C 118.446,191.035 119.446,192.368 119.5,194.5C 118.026,193.564 117.026,192.23 116.5,190.5 Z"/></g>
<g><path style="opacity:0.902" fill="#9fe4d3" d="M 119.5,194.5 C 121.446,195.035 122.446,196.368 122.5,198.5C 121.026,197.564 120.026,196.23 119.5,194.5 Z"/></g>
<g><path style="opacity:0.507" fill="#8ee2d1" d="M 508.5,195.5 C 508.5,195.833 508.5,196.167 508.5,196.5C 503.637,196.181 498.97,196.514 494.5,197.5C 493.957,197.44 493.624,197.107 493.5,196.5C 498.456,195.506 503.456,195.173 508.5,195.5 Z"/></g>
<g><path style="opacity:0.514" fill="#92e2d2" d="M 565.5,195.5 C 565.5,195.833 565.5,196.167 565.5,196.5C 561.154,196.334 556.821,196.501 552.5,197C 554.473,197.495 556.473,197.662 558.5,197.5C 558.5,202.5 558.5,207.5 558.5,212.5C 558.167,212.5 557.833,212.5 557.5,212.5C 557.5,207.833 557.5,203.167 557.5,198.5C 555.5,198.5 553.5,198.5 551.5,198.5C 551.5,197.5 551.5,196.5 551.5,195.5C 556.167,195.5 560.833,195.5 565.5,195.5 Z"/></g>
<g><path style="opacity:0.495" fill="#8ee1d0" d="M 600.5,195.5 C 600.5,195.833 600.5,196.167 600.5,196.5C 596.154,196.334 591.821,196.501 587.5,197C 589.473,197.495 591.473,197.662 593.5,197.5C 593.5,202.5 593.5,207.5 593.5,212.5C 593.167,212.5 592.833,212.5 592.5,212.5C 592.5,207.833 592.5,203.167 592.5,198.5C 590.5,198.5 588.5,198.5 586.5,198.5C 586.5,197.5 586.5,196.5 586.5,195.5C 591.167,195.5 595.833,195.5 600.5,195.5 Z"/></g>
<g><path style="opacity:0.741" fill="#8ee1d2" d="M 374.5,196.5 C 374.817,200.702 374.483,204.702 373.5,208.5C 373.5,204.833 373.5,201.167 373.5,197.5C 333.5,197.5 293.5,197.5 253.5,197.5C 253.5,201.167 253.5,204.833 253.5,208.5C 253.167,208.5 252.833,208.5 252.5,208.5C 252.5,204.5 252.5,200.5 252.5,196.5C 293.167,196.5 333.833,196.5 374.5,196.5 Z"/></g>
<g><path style="opacity:0.114" fill="#d8f5ef" d="M 439.5,196.5 C 437.875,199.891 436.875,203.558 436.5,207.5C 436.5,203.5 436.5,199.5 436.5,195.5C 437.791,195.263 438.791,195.596 439.5,196.5 Z"/></g>
<g><path style="opacity:0.036" fill="#eaf9f6" d="M 467.5,208.5 C 466.834,204.647 466.167,200.647 465.5,196.5C 464.511,200.107 464.177,203.774 464.5,207.5C 463.517,203.702 463.183,199.702 463.5,195.5C 464.833,195.5 466.167,195.5 467.5,195.5C 467.5,199.833 467.5,204.167 467.5,208.5 Z"/></g>
<g><path style="opacity:0.084" fill="#dcf5f0" d="M 482.5,195.5 C 482.5,201.167 482.5,206.833 482.5,212.5C 486.5,212.5 490.5,212.5 494.5,212.5C 490.366,213.485 486.032,213.818 481.5,213.5C 481.177,207.31 481.51,201.31 482.5,195.5 Z"/></g>
<g><path style="opacity:0.096" fill="#ddf6f1" d="M 531.5,212.5 C 532.812,210.257 533.478,207.59 533.5,204.5C 533.167,201.833 532.833,199.167 532.5,196.5C 531.817,196.863 531.15,197.196 530.5,197.5C 531.183,195.824 532.517,195.157 534.5,195.5C 534.5,201.5 534.5,207.5 534.5,213.5C 533.209,213.737 532.209,213.404 531.5,212.5 Z"/></g>
<g><path style="opacity:0.386" fill="#a2e6d9" d="M 579.5,196.5 C 575.833,196.5 572.167,196.5 568.5,196.5C 568.5,201.833 568.5,207.167 568.5,212.5C 572.371,212.815 576.038,212.482 579.5,211.5C 580.043,211.56 580.376,211.893 580.5,212.5C 576.217,213.492 571.884,213.826 567.5,213.5C 567.5,207.5 567.5,201.5 567.5,195.5C 571.702,195.183 575.702,195.517 579.5,196.5 Z"/></g>
<g><path style="opacity:0.016" fill="#d4f4ed" d="M 628.5,196.5 C 630.048,196.821 630.715,197.821 630.5,199.5C 629.209,199.737 628.209,199.404 627.5,198.5C 629.698,198.591 630.031,197.925 628.5,196.5 Z"/></g>
<g><path style="opacity:0.138" fill="#dcf6f1" d="M 635.5,196.5 C 634.188,198.743 633.522,201.41 633.5,204.5C 633.833,207.167 634.167,209.833 634.5,212.5C 635.17,210.709 635.837,209.042 636.5,207.5C 636.5,209.5 636.5,211.5 636.5,213.5C 635.167,213.5 633.833,213.5 632.5,213.5C 632.5,207.5 632.5,201.5 632.5,195.5C 633.791,195.263 634.791,195.596 635.5,196.5 Z"/></g>
<g><path style="opacity:0.03" fill="#f5fcfb" d="M 635.5,196.5 C 636.167,198.5 636.833,200.5 637.5,202.5C 637.167,203.167 636.833,203.833 636.5,204.5C 635.527,202.052 635.194,199.385 635.5,196.5 Z"/></g>
<g><path style="opacity:0.353" fill="#baede2" d="M 670.5,196.5 C 671.947,195.115 672.947,195.448 673.5,197.5C 672.609,196.89 671.609,196.557 670.5,196.5 Z"/></g>
<g><path style="opacity:1" fill="#13be9b" d="M 697.5,210.5 C 698.833,210.5 699.5,211.167 699.5,212.5C 699.167,212.5 698.833,212.5 698.5,212.5C 695.5,212.5 692.5,212.5 689.5,212.5C 689.5,207.167 689.5,201.833 689.5,196.5C 692.187,196.336 694.854,196.503 697.5,197C 695.19,197.497 692.857,197.663 690.5,197.5C 690.5,202.167 690.5,206.833 690.5,211.5C 693.059,211.802 695.393,211.468 697.5,210.5 Z"/></g>
<g><path style="opacity:0.553" fill="#8ee1d1" d="M 744.5,197.5 C 744.167,197.5 743.833,197.5 743.5,197.5C 740.375,196.521 737.042,196.187 733.5,196.5C 733.5,201.833 733.5,207.167 733.5,212.5C 737.371,212.815 741.038,212.482 744.5,211.5C 745.043,211.56 745.376,211.893 745.5,212.5C 741.217,213.492 736.884,213.826 732.5,213.5C 732.5,207.5 732.5,201.5 732.5,195.5C 736.971,194.911 740.971,195.577 744.5,197.5 Z"/></g>
<g><path style="opacity:0.257" fill="#b5ebe1" d="M 758.5,195.5 C 758.5,195.833 758.5,196.167 758.5,196.5C 754.833,196.5 751.167,196.5 747.5,196.5C 747.5,201.833 747.5,207.167 747.5,212.5C 751.182,212.665 754.848,212.499 758.5,212C 755.305,211.819 752.305,211.319 749.5,210.5C 752.833,210.5 756.167,210.5 759.5,210.5C 759.5,211.5 759.5,212.5 759.5,213.5C 755.167,213.5 750.833,213.5 746.5,213.5C 746.5,207.5 746.5,201.5 746.5,195.5C 750.5,195.5 754.5,195.5 758.5,195.5 Z"/></g>
<g><path style="opacity:0.198" fill="#d9f5ef" d="M 775.5,195.5 C 776.833,195.5 778.167,195.5 779.5,195.5C 779.5,201.5 779.5,207.5 779.5,213.5C 778.167,213.5 776.833,213.5 775.5,213.5C 775.5,207.5 775.5,201.5 775.5,195.5 Z"/></g>
<g><path style="opacity:0.266" fill="#ccf2ea" d="M 784.5,196.5 C 783.188,198.743 782.522,201.41 782.5,204.5C 782.833,207.167 783.167,209.833 783.5,212.5C 784.484,209.572 784.817,206.572 784.5,203.5C 784.833,203.5 785.167,203.5 785.5,203.5C 785.5,206.833 785.5,210.167 785.5,213.5C 784.167,213.5 782.833,213.5 781.5,213.5C 781.5,207.5 781.5,201.5 781.5,195.5C 782.791,195.263 783.791,195.596 784.5,196.5 Z"/></g>
<g><path style="opacity:0.052" fill="#edfaf7" d="M 794.5,212.5 C 795.812,210.257 796.478,207.59 796.5,204.5C 796.167,201.833 795.833,199.167 795.5,196.5C 794.511,200.107 794.177,203.774 794.5,207.5C 793.673,208.439 793.006,208.105 792.5,206.5C 793.482,203.038 793.815,199.371 793.5,195.5C 794.833,195.5 796.167,195.5 797.5,195.5C 797.5,201.5 797.5,207.5 797.5,213.5C 796.209,213.737 795.209,213.404 794.5,212.5 Z"/></g>
<g><path style="opacity:0.149" fill="#dbf5f0" d="M 826.5,197.5 C 825.85,197.196 825.183,196.863 824.5,196.5C 823.167,201.833 823.167,207.167 824.5,212.5C 825.325,208.878 825.825,205.211 826,201.5C 826.383,202.056 826.883,202.389 827.5,202.5C 827.5,202.833 827.5,203.167 827.5,203.5C 826.521,206.625 826.187,209.958 826.5,213.5C 825.167,213.5 823.833,213.5 822.5,213.5C 822.5,207.5 822.5,201.5 822.5,195.5C 824.483,195.157 825.817,195.824 826.5,197.5 Z"/></g>
<g><path style="opacity:0.235" fill="#c4f0e7" d="M 851.5,196.5 C 850.391,196.557 849.391,196.89 848.5,197.5C 849.053,195.448 850.053,195.115 851.5,196.5 Z"/></g>
<g><path style="opacity:0.103" fill="#e2f7f3" d="M 862.5,196.5 C 861.188,198.743 860.522,201.41 860.5,204.5C 860.833,207.167 861.167,209.833 861.5,212.5C 862.327,208.541 862.827,204.541 863,200.5C 863.383,201.056 863.883,201.389 864.5,201.5C 864.5,201.833 864.5,202.167 864.5,202.5C 863.518,205.962 863.185,209.629 863.5,213.5C 862.167,213.5 860.833,213.5 859.5,213.5C 859.5,207.5 859.5,201.5 859.5,195.5C 860.791,195.263 861.791,195.596 862.5,196.5 Z"/></g>
<g><path style="opacity:0.206" fill="#cef2eb" d="M 872.5,196.5 C 873.209,195.596 874.209,195.263 875.5,195.5C 875.5,201.5 875.5,207.5 875.5,213.5C 874.209,213.737 873.209,213.404 872.5,212.5C 873.812,210.257 874.478,207.59 874.5,204.5C 874.497,201.645 874.164,198.978 873.5,196.5C 873.167,196.5 872.833,196.5 872.5,196.5 Z"/></g>
<g><path style="opacity:0.251" fill="#c2efe6" d="M 883.5,196.5 C 884.947,195.115 885.947,195.448 886.5,197.5C 885.609,196.89 884.609,196.557 883.5,196.5 Z"/></g>
<g><path style="opacity:1" fill="#77d7c0" d="M 897.5,199.5 C 896.662,199.158 896.328,198.492 896.5,197.5C 900.488,194.685 904.321,195.018 908,198.5C 908.591,199.483 908.257,200.15 907,200.5C 904.055,198.279 900.888,197.946 897.5,199.5 Z"/></g>
<g><path style="opacity:0.75" fill="#92e1d0" d="M 923.5,197.5 C 923.167,197.5 922.833,197.5 922.5,197.5C 919.375,196.521 916.042,196.187 912.5,196.5C 912.5,201.833 912.5,207.167 912.5,212.5C 912.167,212.5 911.833,212.5 911.5,212.5C 910.898,207.115 910.564,201.448 910.5,195.5C 915.294,194.903 919.627,195.57 923.5,197.5 Z"/></g>
<g><path style="opacity:0.559" fill="#9ee5d7" d="M 427.5,207.5 C 426.677,204.023 426.177,200.356 426,196.5C 425.501,200.821 425.334,205.154 425.5,209.5C 424.514,205.03 424.181,200.363 424.5,195.5C 425.5,195.5 426.5,195.5 427.5,195.5C 427.5,199.5 427.5,203.5 427.5,207.5 Z"/></g>
<g><path style="opacity:0.717" fill="#5fd2b9" d="M 439.5,196.5 C 439.666,201.179 439.499,205.845 439,210.5C 438.292,211.381 437.458,212.047 436.5,212.5C 436.5,211.167 435.833,210.5 434.5,210.5C 435.167,209.5 435.833,208.5 436.5,207.5C 436.875,203.558 437.875,199.891 439.5,196.5 Z"/></g>
<g><path style="opacity:0.498" fill="#92e1d1" d="M 453.5,197.5 C 452.662,197.842 452.328,198.508 452.5,199.5C 453.302,200.952 453.802,202.618 454,204.5C 454.495,202.527 454.662,200.527 454.5,198.5C 456.093,201.771 455.426,204.604 452.5,207C 453.64,208.973 454.973,210.807 456.5,212.5C 455.833,212.833 455.167,213.167 454.5,213.5C 452.337,212.168 450.67,210.334 449.5,208C 448.207,207.51 446.873,207.343 445.5,207.5C 445.5,209.5 445.5,211.5 445.5,213.5C 444.5,213.5 443.5,213.5 442.5,213.5C 442.5,207.5 442.5,201.5 442.5,195.5C 445.85,195.335 449.183,195.502 452.5,196C 453.056,196.383 453.389,196.883 453.5,197.5 Z M 452.5,199.5 C 452.714,201.144 452.38,202.644 451.5,204C 449.527,204.495 447.527,204.662 445.5,204.5C 445.5,202.5 445.5,200.5 445.5,198.5C 447.95,198.298 450.283,198.631 452.5,199.5 Z"/></g>
<g><path style="opacity:1" fill="#03bd98" d="M 443.5,196.5 C 446.187,196.336 448.854,196.503 451.5,197C 449.19,197.497 446.857,197.663 444.5,197.5C 444.5,200.167 444.5,202.833 444.5,205.5C 453.833,205.833 453.833,206.167 444.5,206.5C 444.662,208.527 444.495,210.527 444,212.5C 443.501,207.177 443.334,201.844 443.5,196.5 Z"/></g>
<g><path style="opacity:1" fill="#2cc5a5" d="M 482.5,195.5 C 483.167,195.5 483.833,195.5 484.5,195.5C 484.5,200.833 484.5,206.167 484.5,211.5C 487.833,211.5 491.167,211.5 494.5,211.5C 494.5,211.833 494.5,212.167 494.5,212.5C 490.5,212.5 486.5,212.5 482.5,212.5C 482.5,206.833 482.5,201.167 482.5,195.5 Z"/></g>
<g><path style="opacity:0.098" fill="#e5f8f5" d="M 484.5,195.5 C 485.487,200.305 485.821,205.305 485.5,210.5C 488.713,210.19 491.713,210.523 494.5,211.5C 491.167,211.5 487.833,211.5 484.5,211.5C 484.5,206.167 484.5,200.833 484.5,195.5 Z"/></g>
<g><path style="opacity:0.351" fill="#85dcc8" d="M 510.5,195.5 C 511.5,195.5 512.5,195.5 513.5,195.5C 513.5,201.5 513.5,207.5 513.5,213.5C 512.5,213.5 511.5,213.5 510.5,213.5C 510.5,207.5 510.5,201.5 510.5,195.5 Z"/></g>
<g><path style="opacity:1" fill="#07be9b" d="M 565.5,196.5 C 563.735,197.461 561.735,197.795 559.5,197.5C 559.821,202.695 559.487,207.695 558.5,212.5C 558.5,207.5 558.5,202.5 558.5,197.5C 556.473,197.662 554.473,197.495 552.5,197C 556.821,196.501 561.154,196.334 565.5,196.5 Z"/></g>
<g><path style="opacity:1" fill="#1ebe9a" d="M 579.5,196.5 C 580.833,196.833 580.833,197.167 579.5,197.5C 576.167,197.5 572.833,197.5 569.5,197.5C 569.5,202.167 569.5,206.833 569.5,211.5C 572.833,211.5 576.167,211.5 579.5,211.5C 576.038,212.482 572.371,212.815 568.5,212.5C 568.5,207.167 568.5,201.833 568.5,196.5C 572.167,196.5 575.833,196.5 579.5,196.5 Z"/></g>
<g><path style="opacity:1" fill="#0ec09e" d="M 600.5,196.5 C 598.735,197.461 596.735,197.795 594.5,197.5C 594.821,202.695 594.487,207.695 593.5,212.5C 593.5,207.5 593.5,202.5 593.5,197.5C 591.473,197.662 589.473,197.495 587.5,197C 591.821,196.501 596.154,196.334 600.5,196.5 Z"/></g>
<g><path style="opacity:0.98" fill="#2ec8aa" d="M 635.5,196.5 C 635.194,199.385 635.527,202.052 636.5,204.5C 636.5,205.5 636.5,206.5 636.5,207.5C 635.837,209.042 635.17,210.709 634.5,212.5C 634.167,209.833 633.833,207.167 633.5,204.5C 633.522,201.41 634.188,198.743 635.5,196.5 Z"/></g>
<g><path style="opacity:0.366" fill="#a7e8dc" d="M 682.5,212.5 C 682.833,212.5 683.167,212.5 683.5,212.5C 684.316,194.562 684.316,193.562 683.5,209.5C 682.5,209.167 681.833,208.5 681.5,207.5C 682.483,203.702 682.817,199.702 682.5,195.5C 683.5,195.5 684.5,195.5 685.5,195.5C 685.5,201.5 685.5,207.5 685.5,213.5C 684.209,213.737 683.209,213.404 682.5,212.5 Z"/></g>
<g><path style="opacity:1" fill="#02bd99" d="M 683.5,212.5 C 682.167,211.5 682.167,210.5 683.5,209.5C 684.316,193.562 684.316,194.562 683.5,212.5 Z"/></g>
<g><path style="opacity:0.871" fill="#9ce4d4" d="M 702.5,200.5 C 701.075,198.969 700.409,199.302 700.5,201.5C 698.155,198.925 695.155,197.925 691.5,198.5C 691.5,202.5 691.5,206.5 691.5,210.5C 693.5,210.5 695.5,210.5 697.5,210.5C 695.393,211.468 693.059,211.802 690.5,211.5C 690.5,206.833 690.5,202.167 690.5,197.5C 692.857,197.663 695.19,197.497 697.5,197C 694.854,196.503 692.187,196.336 689.5,196.5C 689.5,201.833 689.5,207.167 689.5,212.5C 692.5,212.5 695.5,212.5 698.5,212.5C 695.375,213.479 692.042,213.813 688.5,213.5C 688.5,207.5 688.5,201.5 688.5,195.5C 691.85,195.335 695.183,195.502 698.5,196C 700.751,196.748 702.084,198.248 702.5,200.5 Z"/></g>
<g><path style="opacity:1" fill="#1dc09d" d="M 714.5,196.5 C 715.338,196.842 715.672,197.508 715.5,198.5C 713.763,202.934 713.096,207.601 713.5,212.5C 712.836,210.022 712.503,207.355 712.5,204.5C 712.522,201.41 713.188,198.743 714.5,196.5 Z"/></g>
<g><path style="opacity:1" fill="#23c19f" d="M 743.5,197.5 C 740.5,197.5 737.5,197.5 734.5,197.5C 734.5,199.5 734.5,201.5 734.5,203.5C 737.698,202.964 740.365,203.631 742.5,205.5C 740.167,205.5 737.833,205.5 735.5,205.5C 734.539,207.265 734.205,209.265 734.5,211.5C 737.833,211.5 741.167,211.5 744.5,211.5C 741.038,212.482 737.371,212.815 733.5,212.5C 733.5,207.167 733.5,201.833 733.5,196.5C 737.042,196.187 740.375,196.521 743.5,197.5 Z"/></g>
<g><path style="opacity:0.115" fill="#e6f8f5" d="M 758.5,195.5 C 759.167,195.5 759.833,195.5 760.5,195.5C 760.5,195.833 760.5,196.167 760.5,196.5C 761.919,197.451 763.585,197.784 765.5,197.5C 765.5,197.833 765.5,198.167 765.5,198.5C 760.167,198.5 754.833,198.5 749.5,198.5C 752.5,197.833 755.5,197.167 758.5,196.5C 758.5,196.167 758.5,195.833 758.5,195.5 Z"/></g>
<g><path style="opacity:1" fill="#03be99" d="M 760.5,196.5 C 764.846,196.334 769.179,196.501 773.5,197C 771.527,197.495 769.527,197.662 767.5,197.5C 767.666,202.511 767.499,207.511 767,212.5C 766.826,207.316 766.326,202.316 765.5,197.5C 763.585,197.784 761.919,197.451 760.5,196.5 Z"/></g>
<g><path style="opacity:0.739" fill="#45cdb1" d="M 776.5,196.5 C 777.812,198.743 778.478,201.41 778.5,204.5C 778.167,207.167 777.833,209.833 777.5,212.5C 776.505,207.208 776.172,201.875 776.5,196.5 Z"/></g>
<g><path style="opacity:0.592" fill="#ace9dc" d="M 784.5,196.5 C 785.906,196.973 786.573,197.973 786.5,199.5C 785.094,199.027 784.427,198.027 784.5,196.5 Z"/></g>
<g><path style="opacity:0.966" fill="#33c9ac" d="M 794.5,212.5 C 793.833,212.5 793.5,212.167 793.5,211.5C 793.721,210.265 794.388,209.265 795.5,208.5C 795.376,207.893 795.043,207.56 794.5,207.5C 794.177,203.774 794.511,200.107 795.5,196.5C 795.833,199.167 796.167,201.833 796.5,204.5C 796.478,207.59 795.812,210.257 794.5,212.5 Z"/></g>
<g><path style="opacity:0.533" fill="#9be5d5" d="M 837.5,196.5 C 838.209,195.596 839.209,195.263 840.5,195.5C 840.98,201.235 840.98,206.902 840.5,212.5C 840.167,212.5 839.833,212.5 839.5,212.5C 840.113,206.729 839.446,201.396 837.5,196.5 Z"/></g>
<g><path style="opacity:0.435" fill="#99e4d5" d="M 935.5,196.5 C 932.5,196.5 929.5,196.5 926.5,196.5C 926.334,201.844 926.501,207.177 927,212.5C 927.495,210.527 927.662,208.527 927.5,206.5C 929.415,206.216 931.081,206.549 932.5,207.5C 931.167,207.5 929.833,207.5 928.5,207.5C 928.5,209.5 928.5,211.5 928.5,213.5C 927.5,213.5 926.5,213.5 925.5,213.5C 925.5,207.5 925.5,201.5 925.5,195.5C 929.042,195.187 932.375,195.521 935.5,196.5 Z"/></g>
<g><path style="opacity:1" fill="#34c3a2" d="M 935.5,196.5 C 935.833,196.5 936.167,196.5 936.5,196.5C 936.427,198.027 937.094,199.027 938.5,199.5C 939.833,200.833 939.833,202.167 938.5,203.5C 937.883,203.611 937.383,203.944 937,204.5C 936.802,202.618 936.302,200.952 935.5,199.5C 934.833,199.5 934.5,199.167 934.5,198.5C 932.735,197.539 930.735,197.205 928.5,197.5C 927.527,199.948 927.194,202.615 927.5,205.5C 929.924,205.192 932.257,205.526 934.5,206.5C 934.043,207.298 933.376,207.631 932.5,207.5C 931.081,206.549 929.415,206.216 927.5,206.5C 927.662,208.527 927.495,210.527 927,212.5C 926.501,207.177 926.334,201.844 926.5,196.5C 929.5,196.5 932.5,196.5 935.5,196.5 Z M 934.5,198.5 C 934.5,199.167 934.833,199.5 935.5,199.5C 935.714,201.144 935.38,202.644 934.5,204C 932.527,204.495 930.527,204.662 928.5,204.5C 928.5,202.833 928.5,201.167 928.5,199.5C 930.379,198.659 932.379,198.325 934.5,198.5 Z"/></g>
<g><path style="opacity:0.116" fill="#e0f6f2" d="M 928.5,197.5 C 930.735,197.205 932.735,197.539 934.5,198.5C 932.379,198.325 930.379,198.659 928.5,199.5C 928.5,198.833 928.5,198.167 928.5,197.5 Z"/></g>
<g><path style="opacity:0.995" fill="#71d9c7" d="M 373.5,208.5 C 333.5,208.5 293.5,208.5 253.5,208.5C 253.5,204.833 253.5,201.167 253.5,197.5C 293.5,197.5 333.5,197.5 373.5,197.5C 373.5,201.167 373.5,204.833 373.5,208.5 Z"/></g>
<g><path style="opacity:0.891" fill="#2ec8aa" d="M 494.5,197.5 C 498.97,196.514 503.637,196.181 508.5,196.5C 506.735,197.461 504.735,197.795 502.5,197.5C 501.833,217.5 501.167,217.5 500.5,197.5C 498.5,197.5 496.5,197.5 494.5,197.5 Z"/></g>
<g><path style="opacity:0.1" fill="#e9f9f6" d="M 508.5,195.5 C 509.404,196.209 509.737,197.209 509.5,198.5C 507.5,198.5 505.5,198.5 503.5,198.5C 503.5,203.5 503.5,208.5 503.5,213.5C 502.167,213.5 500.833,213.5 499.5,213.5C 499.5,208.5 499.5,203.5 499.5,198.5C 497.585,198.784 495.919,198.451 494.5,197.5C 496.5,197.5 498.5,197.5 500.5,197.5C 501.167,217.5 501.833,217.5 502.5,197.5C 504.735,197.795 506.735,197.461 508.5,196.5C 508.5,196.167 508.5,195.833 508.5,195.5 Z"/></g>
<g><path style="opacity:0.827" fill="#86dcc8" d="M 547.5,209.5 C 547.5,209.167 547.5,208.833 547.5,208.5C 548.757,207.377 548.424,206.711 546.5,206.5C 546.672,205.508 546.338,204.842 545.5,204.5C 544.122,200.58 542.788,200.58 541.5,204.5C 541.869,202.007 541.203,201.34 539.5,202.5C 539.915,198.599 541.915,196.266 545.5,195.5C 547.698,201.426 549.698,207.426 551.5,213.5C 548.858,213.512 547.525,212.179 547.5,209.5 Z"/></g>
<g><path style="opacity:0.443" fill="#a4e7da" d="M 760.5,196.5 C 760.5,196.167 760.5,195.833 760.5,195.5C 765.167,195.5 769.833,195.5 774.5,195.5C 774.5,196.5 774.5,197.5 774.5,198.5C 772.5,198.5 770.5,198.5 768.5,198.5C 768.5,203.5 768.5,208.5 768.5,213.5C 767.5,213.5 766.5,213.5 765.5,213.5C 765.5,208.5 765.5,203.5 765.5,198.5C 765.5,198.167 765.5,197.833 765.5,197.5C 766.326,202.316 766.826,207.316 767,212.5C 767.499,207.511 767.666,202.511 767.5,197.5C 769.527,197.662 771.527,197.495 773.5,197C 769.179,196.501 764.846,196.334 760.5,196.5 Z"/></g>
<g><path style="opacity:0.235" fill="#cbf1e9" d="M 936.5,196.5 C 937.906,196.973 938.573,197.973 938.5,199.5C 937.094,199.027 936.427,198.027 936.5,196.5 Z"/></g>
<g><path style="opacity:0.671" fill="#68d7c2" d="M 519.5,196.5 C 517.554,201.396 516.887,206.729 517.5,212.5C 517.167,212.5 516.833,212.5 516.5,212.5C 516.5,206.833 516.5,201.167 516.5,195.5C 517.791,195.263 518.791,195.596 519.5,196.5 Z"/></g>
<g><path style="opacity:0.925" fill="#58cfb4" d="M 531.5,212.5 C 530.556,209.332 530.556,205.999 531.5,202.5C 530.833,201.5 530.167,200.5 529.5,199.5C 529.328,198.508 529.662,197.842 530.5,197.5C 531.15,197.196 531.817,196.863 532.5,196.5C 532.833,199.167 533.167,201.833 533.5,204.5C 533.478,207.59 532.812,210.257 531.5,212.5 Z"/></g>
<g><path style="opacity:0.238" fill="#cdf2eb" d="M 565.5,195.5 C 566.404,196.209 566.737,197.209 566.5,198.5C 564.5,198.5 562.5,198.5 560.5,198.5C 560.5,203.5 560.5,208.5 560.5,213.5C 559.209,213.737 558.209,213.404 557.5,212.5C 557.833,212.5 558.167,212.5 558.5,212.5C 559.487,207.695 559.821,202.695 559.5,197.5C 561.735,197.795 563.735,197.461 565.5,196.5C 565.5,196.167 565.5,195.833 565.5,195.5 Z"/></g>
<g><path style="opacity:0.208" fill="#d2f3ed" d="M 600.5,195.5 C 601.404,196.209 601.737,197.209 601.5,198.5C 599.5,198.5 597.5,198.5 595.5,198.5C 595.5,203.5 595.5,208.5 595.5,213.5C 594.209,213.737 593.209,213.404 592.5,212.5C 592.833,212.5 593.167,212.5 593.5,212.5C 594.487,207.695 594.821,202.695 594.5,197.5C 596.735,197.795 598.735,197.461 600.5,196.5C 600.5,196.167 600.5,195.833 600.5,195.5 Z"/></g>
<g><path style="opacity:1" fill="#3ec9ab" d="M 670.5,196.5 C 671.609,196.557 672.609,196.89 673.5,197.5C 674.5,197.833 675.167,198.5 675.5,199.5C 675.737,200.791 675.404,201.791 674.5,202.5C 674.217,201.711 673.717,201.044 673,200.5C 673.102,204.956 672.268,208.956 670.5,212.5C 670.5,207.167 670.5,201.833 670.5,196.5 Z"/></g>
<g><path style="opacity:0.292" fill="#b8ece2" d="M 714.5,196.5 C 713.188,198.743 712.522,201.41 712.5,204.5C 712.503,207.355 712.836,210.022 713.5,212.5C 713.833,212.5 714.167,212.5 714.5,212.5C 713.791,213.404 712.791,213.737 711.5,213.5C 711.5,207.5 711.5,201.5 711.5,195.5C 712.791,195.263 713.791,195.596 714.5,196.5 Z"/></g>
<g><path style="opacity:1" fill="#35c5a5" d="M 784.5,196.5 C 784.427,198.027 785.094,199.027 786.5,199.5C 786.5,200.167 786.5,200.833 786.5,201.5C 785.075,199.969 784.409,200.302 784.5,202.5C 784.5,202.833 784.5,203.167 784.5,203.5C 784.817,206.572 784.484,209.572 783.5,212.5C 783.167,209.833 782.833,207.167 782.5,204.5C 782.522,201.41 783.188,198.743 784.5,196.5 Z"/></g>
<g><path style="opacity:1" fill="#80dac4" d="M 811.5,209.5 C 812.885,208.053 812.552,207.053 810.5,206.5C 808.952,206.179 808.285,205.179 808.5,203.5C 810.604,203.201 812.604,203.534 814.5,204.5C 815.213,207.096 815.213,209.763 814.5,212.5C 811.344,212.163 808.011,212.163 804.5,212.5C 798.958,209.711 797.458,205.378 800,199.5C 804.38,194.657 809.046,194.323 814,198.5C 814.591,199.483 814.257,200.15 813,200.5C 804.384,196.446 801.05,199.113 803,208.5C 805.585,210.735 808.418,211.069 811.5,209.5 Z"/></g>
<g><path style="opacity:1" fill="#1dc1a0" d="M 453.5,197.5 C 454.167,197.5 454.5,197.833 454.5,198.5C 454.662,200.527 454.495,202.527 454,204.5C 453.802,202.618 453.302,200.952 452.5,199.5C 452.328,198.508 452.662,197.842 453.5,197.5 Z"/></g>
<g><path style="opacity:0.702" fill="#a3e5d5" d="M 896.5,197.5 C 896.328,198.492 896.662,199.158 897.5,199.5C 896.735,202.096 896.401,204.763 896.5,207.5C 895.686,205.369 895.186,203.036 895,200.5C 894.617,201.056 894.117,201.389 893.5,201.5C 893.738,199.596 894.738,198.262 896.5,197.5 Z"/></g>
<g><path style="opacity:1" fill="#1dc1a0" d="M 519.5,196.5 C 519.833,197.167 520.167,197.833 520.5,198.5C 520.672,199.492 520.338,200.158 519.5,200.5C 518.833,204.5 518.167,208.5 517.5,212.5C 516.887,206.729 517.554,201.396 519.5,196.5 Z"/></g>
<g><path style="opacity:0.102" fill="#daf5f0" d="M 618.5,198.5 C 618.253,200.858 618.919,202.858 620.5,204.5C 619.504,204.586 618.671,204.252 618,203.5C 617.22,201.613 617.387,199.946 618.5,198.5 Z"/></g>
<g><path style="opacity:0.969" fill="#86dcc8" d="M 665.5,204.5 C 664.604,203.494 663.938,203.494 663.5,204.5C 663.167,204.5 662.833,204.5 662.5,204.5C 661.91,203.234 661.41,201.901 661,200.5C 660.392,202.066 659.558,203.4 658.5,204.5C 658.591,202.302 657.925,201.969 656.5,203.5C 656.799,200.051 658.299,197.384 661,195.5C 663.157,198.116 664.657,201.116 665.5,204.5 Z"/></g>
<g><path style="opacity:1" fill="#85dcc8" d="M 714.5,212.5 C 714.167,212.5 713.833,212.5 713.5,212.5C 713.096,207.601 713.763,202.934 715.5,198.5C 717.39,200.59 719.057,202.923 720.5,205.5C 722.559,202.459 724.559,199.459 726.5,196.5C 727.209,195.596 728.209,195.263 729.5,195.5C 729.5,201.5 729.5,207.5 729.5,213.5C 728.5,213.5 727.5,213.5 726.5,213.5C 726.665,209.818 726.499,206.152 726,202.5C 724.894,205.726 723.061,208.393 720.5,210.5C 718.433,208.044 716.599,205.378 715,202.5C 714.502,205.817 714.335,209.15 714.5,212.5 Z"/></g>
<g><path style="opacity:1" fill="#04bd99" d="M 726.5,196.5 C 727.812,198.743 728.478,201.41 728.5,204.5C 728.333,207.167 728.167,209.833 728,212.5C 727.677,207.134 727.177,201.801 726.5,196.5 Z"/></g>
<g><path style="opacity:0.004" fill="#ddf6f1" d="M 786.5,201.5 C 786.5,202.167 786.5,202.833 786.5,203.5C 786.167,203.5 785.833,203.5 785.5,203.5C 785.5,202.833 785.167,202.5 784.5,202.5C 784.409,200.302 785.075,199.969 786.5,201.5 Z"/></g>
<g><path style="opacity:0.837" fill="#41cbaf" d="M 826.5,197.5 C 827.338,197.842 827.672,198.508 827.5,199.5C 827.5,200.5 827.5,201.5 827.5,202.5C 826.883,202.389 826.383,202.056 826,201.5C 825.825,205.211 825.325,208.878 824.5,212.5C 823.167,207.167 823.167,201.833 824.5,196.5C 825.183,196.863 825.85,197.196 826.5,197.5 Z"/></g>
<g><path style="opacity:1" fill="#09be9a" d="M 837.5,196.5 C 839.446,201.396 840.113,206.729 839.5,212.5C 838.517,208.702 838.183,204.702 838.5,200.5C 837.766,199.292 837.433,197.959 837.5,196.5 Z"/></g>
<g><path style="opacity:0.88" fill="#30c9aa" d="M 862.5,196.5 C 863.167,198.167 863.833,199.833 864.5,201.5C 863.883,201.389 863.383,201.056 863,200.5C 862.827,204.541 862.327,208.541 861.5,212.5C 861.167,209.833 860.833,207.167 860.5,204.5C 860.522,201.41 861.188,198.743 862.5,196.5 Z"/></g>
<g><path style="opacity:1" fill="#64d1b7" d="M 421.5,200.5 C 422.833,203.167 422.833,205.833 421.5,208.5C 420.075,210.031 419.409,209.698 419.5,207.5C 419.5,205.833 419.5,204.167 419.5,202.5C 419.131,200.007 419.797,199.34 421.5,200.5 Z"/></g>
<g><path style="opacity:0.291" fill="#beeee5" d="M 519.5,200.5 C 520.11,201.391 520.443,202.391 520.5,203.5C 519.521,206.625 519.187,209.958 519.5,213.5C 518.209,213.737 517.209,213.404 516.5,212.5C 516.833,212.5 517.167,212.5 517.5,212.5C 518.167,208.5 518.833,204.5 519.5,200.5 Z"/></g>
<g><path style="opacity:1" fill="#76d7c0" d="M 645.5,210.5 C 645.5,211.833 644.833,212.5 643.5,212.5C 641.675,210.197 639.842,207.864 638,205.5C 637.722,206.416 637.222,207.082 636.5,207.5C 636.5,206.5 636.5,205.5 636.5,204.5C 636.833,203.833 637.167,203.167 637.5,202.5C 639.294,200.203 641.294,198.037 643.5,196C 644.635,195.251 645.635,195.417 646.5,196.5C 644.5,198.833 642.5,201.167 640.5,203.5C 642.422,205.687 644.088,208.02 645.5,210.5 Z"/></g>
<g><path style="opacity:0.212" fill="#cef2eb" d="M 674.5,202.5 C 673.518,205.962 673.185,209.629 673.5,213.5C 672.209,213.737 671.209,213.404 670.5,212.5C 672.268,208.956 673.102,204.956 673,200.5C 673.717,201.044 674.217,201.711 674.5,202.5 Z"/></g>
<g><path style="opacity:0.091" fill="#d6f4ee" d="M 743.5,197.5 C 743.833,197.5 744.167,197.5 744.5,197.5C 741.713,198.477 738.713,198.81 735.5,198.5C 735.5,199.833 735.5,201.167 735.5,202.5C 738.167,202.5 740.833,202.5 743.5,202.5C 743.737,203.791 743.404,204.791 742.5,205.5C 740.365,203.631 737.698,202.964 734.5,203.5C 734.5,201.5 734.5,199.5 734.5,197.5C 737.5,197.5 740.5,197.5 743.5,197.5 Z"/></g>
<g><path style="opacity:0.949" fill="#76d6bf" d="M 851.5,196.5 C 853.293,198.426 854.293,200.759 854.5,203.5C 853.833,203.833 853.167,204.167 852.5,204.5C 851.768,203.192 850.934,201.858 850,200.5C 849.79,202.058 849.29,203.391 848.5,204.5C 847.957,204.56 847.624,204.893 847.5,205.5C 849.766,206.314 852.1,206.814 854.5,207C 853,207.167 851.5,207.333 850,207.5C 848.014,207.431 846.514,206.765 845.5,205.5C 845.98,202.557 846.98,199.89 848.5,197.5C 849.391,196.89 850.391,196.557 851.5,196.5 Z"/></g>
<g><path style="opacity:0.099" fill="#def6f2" d="M 922.5,197.5 C 922.833,197.5 923.167,197.5 923.5,197.5C 920.713,198.477 917.713,198.81 914.5,198.5C 914.5,199.833 914.5,201.167 914.5,202.5C 917.167,202.5 919.833,202.5 922.5,202.5C 922.737,203.791 922.404,204.791 921.5,205.5C 919.365,203.631 916.698,202.964 913.5,203.5C 913.5,201.5 913.5,199.5 913.5,197.5C 916.5,197.5 919.5,197.5 922.5,197.5 Z"/></g>
<g><path style="opacity:0.999" fill="#9ae2d1" d="M 579.5,197.5 C 576.713,198.477 573.713,198.81 570.5,198.5C 570.5,199.833 570.5,201.167 570.5,202.5C 573.167,202.5 575.833,202.5 578.5,202.5C 578.5,203.5 578.5,204.5 578.5,205.5C 575.833,205.5 573.167,205.5 570.5,205.5C 570.5,207.167 570.5,208.833 570.5,210.5C 573.713,210.19 576.713,210.523 579.5,211.5C 576.167,211.5 572.833,211.5 569.5,211.5C 569.5,206.833 569.5,202.167 569.5,197.5C 572.833,197.5 576.167,197.5 579.5,197.5 Z"/></g>
<g><path style="opacity:1" fill="#6ed4bc" d="M 675.5,199.5 C 677.853,201.86 679.853,204.527 681.5,207.5C 681.833,208.5 682.5,209.167 683.5,209.5C 682.167,210.5 682.167,211.5 683.5,212.5C 683.167,212.5 682.833,212.5 682.5,212.5C 679.484,209.48 676.817,206.146 674.5,202.5C 675.404,201.791 675.737,200.791 675.5,199.5 Z"/></g>
<g><path style="opacity:1" fill="#50cbaf" d="M 758.5,196.5 C 755.5,197.167 752.5,197.833 749.5,198.5C 749.5,199.833 749.5,201.167 749.5,202.5C 752.167,202.5 754.833,202.5 757.5,202.5C 757.5,203.5 757.5,204.5 757.5,205.5C 754.833,205.5 752.167,205.5 749.5,205.5C 749.5,207.167 749.5,208.833 749.5,210.5C 752.305,211.319 755.305,211.819 758.5,212C 754.848,212.499 751.182,212.665 747.5,212.5C 747.5,207.167 747.5,201.833 747.5,196.5C 751.167,196.5 754.833,196.5 758.5,196.5 Z"/></g>
<g><path style="opacity:1" fill="#7edac4" d="M 837.5,196.5 C 837.433,197.959 837.766,199.292 838.5,200.5C 837.094,200.973 836.427,201.973 836.5,203.5C 836.068,204.71 835.401,205.71 834.5,206.5C 834.591,204.302 833.925,203.969 832.5,205.5C 833.917,202.331 835.583,199.331 837.5,196.5 Z"/></g>
<g><path style="opacity:0.216" fill="#c9f1e9" d="M 838.5,200.5 C 838.183,204.702 838.517,208.702 839.5,212.5C 839.833,212.5 840.167,212.5 840.5,212.5C 839.791,213.404 838.791,213.737 837.5,213.5C 837.813,209.958 837.479,206.625 836.5,203.5C 836.427,201.973 837.094,200.973 838.5,200.5 Z"/></g>
<g><path style="opacity:0.961" fill="#a0e4d5" d="M 883.5,196.5 C 884.502,198.011 885.169,199.678 885.5,201.5C 883.974,202.105 882.974,203.271 882.5,205C 884.066,205.765 885.399,205.598 886.5,204.5C 887.043,204.56 887.376,204.893 887.5,205.5C 885.002,206.938 882.836,206.604 881,204.5C 880.617,205.056 880.117,205.389 879.5,205.5C 880.075,202.088 881.408,199.088 883.5,196.5 Z"/></g>
<g><path style="opacity:0.922" fill="#85dcc7" d="M 399.5,206.5 C 399.167,206.5 398.833,206.5 398.5,206.5C 397.833,203.833 397.167,203.833 396.5,206.5C 396.167,206.5 395.833,206.5 395.5,206.5C 393.511,203.194 391.511,199.861 389.5,196.5C 390,196.167 390.5,195.833 391,195.5C 393.618,197.392 395.784,199.726 397.5,202.5C 399.276,200.462 400.943,198.296 402.5,196C 403.635,195.251 404.635,195.417 405.5,196.5C 403.489,199.861 401.489,203.194 399.5,206.5 Z"/></g>
<g><path style="opacity:0.957" fill="#85dcc8" d="M 613.5,203.5 C 612.075,201.969 611.409,202.302 611.5,204.5C 610.442,203.4 609.608,202.066 609,200.5C 608.293,202.081 607.46,203.581 606.5,205C 608.134,205.494 609.801,205.66 611.5,205.5C 608.828,206.26 606.162,206.594 603.5,206.5C 604.282,202.27 606.115,198.603 609,195.5C 611.271,197.707 612.771,200.374 613.5,203.5 Z"/></g>
<g><path style="opacity:1" fill="#89dcc8" d="M 827.5,199.5 C 829.167,201.5 830.833,203.5 832.5,205.5C 831.811,206.774 830.977,206.774 830,205.5C 829.536,206.094 829.369,206.761 829.5,207.5C 828.326,206.486 827.66,205.153 827.5,203.5C 827.5,203.167 827.5,202.833 827.5,202.5C 827.5,201.5 827.5,200.5 827.5,199.5 Z"/></g>
<g><path style="opacity:1" fill="#7ad8c2" d="M 520.5,198.5 C 521.976,200.769 523.476,203.102 525,205.5C 526.277,203.253 527.777,201.253 529.5,199.5C 530.167,200.5 530.833,201.5 531.5,202.5C 529.6,204.619 527.934,206.953 526.5,209.5C 525.391,209.443 524.391,209.11 523.5,208.5C 522.263,207.035 521.263,205.368 520.5,203.5C 520.443,202.391 520.11,201.391 519.5,200.5C 520.338,200.158 520.672,199.492 520.5,198.5 Z"/></g>
<g><path style="opacity:0.226" fill="#bfeee6" d="M 541.5,204.5 C 542.833,205.833 544.167,205.833 545.5,204.5C 546.338,204.842 546.672,205.508 546.5,206.5C 544.396,206.799 542.396,206.466 540.5,205.5C 540.624,204.893 540.957,204.56 541.5,204.5 Z"/></g>
<g><path style="opacity:1" fill="#24c2a1" d="M 613.5,203.5 C 613.5,203.833 613.5,204.167 613.5,204.5C 613.5,205.5 613.5,206.5 613.5,207.5C 610.615,207.194 607.948,207.527 605.5,208.5C 603.797,209.66 603.131,208.993 603.5,206.5C 606.162,206.594 608.828,206.26 611.5,205.5C 611.5,205.167 611.5,204.833 611.5,204.5C 611.409,202.302 612.075,201.969 613.5,203.5 Z"/></g>
<g><path style="opacity:0.816" fill="#79d8c3" d="M 862.5,196.5 C 865.802,199.974 868.968,203.641 872,207.5C 872.499,203.848 872.665,200.182 872.5,196.5C 872.833,196.5 873.167,196.5 873.5,196.5C 873.925,201.728 873.258,206.728 871.5,211.5C 868.815,208.81 866.482,205.81 864.5,202.5C 864.5,202.167 864.5,201.833 864.5,201.5C 863.833,199.833 863.167,198.167 862.5,196.5 Z"/></g>
<g><path style="opacity:1" fill="#27c3a1" d="M 922.5,197.5 C 919.5,197.5 916.5,197.5 913.5,197.5C 913.5,199.5 913.5,201.5 913.5,203.5C 916.698,202.964 919.365,203.631 921.5,205.5C 919.167,205.5 916.833,205.5 914.5,205.5C 913.539,207.265 913.205,209.265 913.5,211.5C 916.833,211.5 920.167,211.5 923.5,211.5C 920.038,212.482 916.371,212.815 912.5,212.5C 912.5,207.167 912.5,201.833 912.5,196.5C 916.042,196.187 919.375,196.521 922.5,197.5 Z"/></g>
<g><path style="opacity:0.073" fill="#e9f9f6" d="M 395.5,206.5 C 395.833,206.5 396.167,206.5 396.5,206.5C 397.167,214.5 397.833,214.5 398.5,206.5C 398.833,206.5 399.167,206.5 399.5,206.5C 399.5,208.833 399.5,211.167 399.5,213.5C 398.167,213.5 396.833,213.5 395.5,213.5C 395.5,211.167 395.5,208.833 395.5,206.5 Z"/></g>
<g><path style="opacity:1" fill="#19c19f" d="M 658.5,204.5 C 657.957,204.56 657.624,204.893 657.5,205.5C 658.5,205.833 659.5,206.167 660.5,206.5C 662.03,206.36 663.03,205.693 663.5,204.5C 663.938,203.494 664.604,203.494 665.5,204.5C 665.5,205.5 665.5,206.5 665.5,207.5C 662.5,207.5 659.5,207.5 656.5,207.5C 656.5,206.167 656.5,204.833 656.5,203.5C 657.925,201.969 658.591,202.302 658.5,204.5 Z"/></g>
<g><path style="opacity:0.01" fill="#f1fbf9" d="M 810.5,206.5 C 812.552,207.053 812.885,208.053 811.5,209.5C 811.443,208.391 811.11,207.391 810.5,206.5 Z"/></g>
<g><path style="opacity:0.937" fill="#5acfb4" d="M 834.5,206.5 C 834.672,207.492 834.338,208.158 833.5,208.5C 832.609,209.11 831.609,209.443 830.5,209.5C 829.662,209.158 829.328,208.492 829.5,207.5C 829.369,206.761 829.536,206.094 830,205.5C 830.977,206.774 831.811,206.774 832.5,205.5C 833.925,203.969 834.591,204.302 834.5,206.5 Z"/></g>
<g><path style="opacity:1" fill="#4acaad" d="M 883.5,196.5 C 884.609,196.557 885.609,196.89 886.5,197.5C 888.346,200.54 889.679,203.873 890.5,207.5C 890.869,209.993 890.203,210.66 888.5,209.5C 888.5,209.167 888.5,208.833 888.5,208.5C 885.77,207.183 882.937,207.183 880,208.5C 879.517,207.552 879.351,206.552 879.5,205.5C 880.117,205.389 880.617,205.056 881,204.5C 882.836,206.604 885.002,206.938 887.5,205.5C 887.376,204.893 887.043,204.56 886.5,204.5C 885.596,203.791 885.263,202.791 885.5,201.5C 885.169,199.678 884.502,198.011 883.5,196.5 Z"/></g>
<g><path style="opacity:0.944" fill="#2cc8a9" d="M 398.5,206.5 C 397.833,214.5 397.167,214.5 396.5,206.5C 397.167,203.833 397.833,203.833 398.5,206.5 Z"/></g>
<g><path style="opacity:1" fill="#2fc5a5" d="M 541.5,204.5 C 540.957,204.56 540.624,204.893 540.5,205.5C 542.396,206.466 544.396,206.799 546.5,206.5C 548.424,206.711 548.757,207.377 547.5,208.5C 544.833,207.167 542.167,207.167 539.5,208.5C 538.596,207.791 538.263,206.791 538.5,205.5C 538.557,204.391 538.89,203.391 539.5,202.5C 541.203,201.34 541.869,202.007 541.5,204.5 Z"/></g>
<g><path style="opacity:0.207" fill="#d1f3ed" d="M 547.5,208.5 C 547.5,208.833 547.5,209.167 547.5,209.5C 544.833,208.167 542.167,208.167 539.5,209.5C 539.5,209.167 539.5,208.833 539.5,208.5C 542.167,207.167 544.833,207.167 547.5,208.5 Z"/></g>
<g><path style="opacity:1" fill="#98e1cf" d="M 613.5,204.5 C 614.833,206.833 616.167,209.167 617.5,211.5C 617.53,212.497 617.03,213.164 616,213.5C 614.153,212.831 612.986,211.497 612.5,209.5C 610.257,208.526 607.924,208.192 605.5,208.5C 607.948,207.527 610.615,207.194 613.5,207.5C 613.5,206.5 613.5,205.5 613.5,204.5 Z"/></g>
<g><path style="opacity:0.984" fill="#7ad8c2" d="M 702.5,200.5 C 703.634,202.966 703.801,205.633 703,208.5C 702.34,210.324 701.173,211.657 699.5,212.5C 699.5,211.167 698.833,210.5 697.5,210.5C 700.076,208.112 701.076,205.112 700.5,201.5C 700.409,199.302 701.075,198.969 702.5,200.5 Z"/></g>
<g><path style="opacity:1" fill="#96e0cf" d="M 854.5,203.5 C 856.794,206.37 858.128,209.703 858.5,213.5C 855.459,213.594 853.793,212.094 853.5,209C 851.19,208.503 848.857,208.337 846.5,208.5C 846.613,212.814 844.947,213.981 841.5,212C 842.933,209.827 844.266,207.66 845.5,205.5C 846.514,206.765 848.014,207.431 850,207.5C 851.5,207.333 853,207.167 854.5,207C 852.1,206.814 849.766,206.314 847.5,205.5C 847.624,204.893 847.957,204.56 848.5,204.5C 849.833,205.833 851.167,205.833 852.5,204.5C 853.167,204.167 853.833,203.833 854.5,203.5 Z"/></g>
<g><path style="opacity:1" fill="#72d6be" d="M 896.5,207.5 C 899.516,211.271 902.849,211.438 906.5,208C 905.437,206.812 904.103,206.312 902.5,206.5C 902.5,205.5 902.5,204.5 902.5,203.5C 904.735,203.205 906.735,203.539 908.5,204.5C 908.813,207.247 908.48,209.914 907.5,212.5C 904.681,212.258 901.681,212.258 898.5,212.5C 894.447,211.237 892.447,208.404 892.5,204C 892.743,203.098 893.077,202.265 893.5,201.5C 894.117,201.389 894.617,201.056 895,200.5C 895.186,203.036 895.686,205.369 896.5,207.5 Z"/></g>
<g><path style="opacity:0.353" fill="#cdf1eb" d="M 374.5,196.5 C 375.485,200.634 375.818,204.968 375.5,209.5C 334.33,209.832 293.33,209.499 252.5,208.5C 252.833,208.5 253.167,208.5 253.5,208.5C 293.5,208.5 333.5,208.5 373.5,208.5C 374.483,204.702 374.817,200.702 374.5,196.5 Z"/></g>
<g><path style="opacity:1" fill="#88dcc9" d="M 538.5,205.5 C 538.263,206.791 538.596,207.791 539.5,208.5C 539.5,208.833 539.5,209.167 539.5,209.5C 539.475,212.179 538.142,213.512 535.5,213.5C 535.98,210.557 536.98,207.89 538.5,205.5 Z"/></g>
<g><path style="opacity:1" fill="#93e0cd" d="M 656.5,203.5 C 656.5,204.833 656.5,206.167 656.5,207.5C 659.5,207.5 662.5,207.5 665.5,207.5C 665.5,206.5 665.5,205.5 665.5,204.5C 666.537,205.93 667.204,207.597 667.5,209.5C 666.075,207.969 665.409,208.302 665.5,210.5C 661.242,207.454 657.909,208.287 655.5,213C 654.365,213.749 653.365,213.583 652.5,212.5C 653.609,209.292 654.942,206.292 656.5,203.5 Z"/></g>
<g><path style="opacity:0.236" fill="#bfeee5" d="M 658.5,204.5 C 659.833,205.833 661.167,205.833 662.5,204.5C 662.833,204.5 663.167,204.5 663.5,204.5C 663.03,205.693 662.03,206.36 660.5,206.5C 659.5,206.167 658.5,205.833 657.5,205.5C 657.624,204.893 657.957,204.56 658.5,204.5 Z"/></g>
<g><path style="opacity:1" fill="#a1e4d4" d="M 879.5,205.5 C 879.351,206.552 879.517,207.552 880,208.5C 882.937,207.183 885.77,207.183 888.5,208.5C 886.143,208.337 883.81,208.503 881.5,209C 881.207,212.094 879.541,213.594 876.5,213.5C 876.98,210.557 877.98,207.89 879.5,205.5 Z"/></g>
<g><path style="opacity:1" fill="#82dac5" d="M 928.5,197.5 C 928.5,198.167 928.5,198.833 928.5,199.5C 928.5,201.167 928.5,202.833 928.5,204.5C 930.527,204.662 932.527,204.495 934.5,204C 935.38,202.644 935.714,201.144 935.5,199.5C 936.302,200.952 936.802,202.618 937,204.5C 937.383,203.944 937.883,203.611 938.5,203.5C 938.063,205.074 937.063,206.241 935.5,207C 936.823,207.816 937.489,208.983 937.5,210.5C 937.591,212.698 936.925,213.031 935.5,211.5C 934.026,210.564 933.026,209.23 932.5,207.5C 933.376,207.631 934.043,207.298 934.5,206.5C 932.257,205.526 929.924,205.192 927.5,205.5C 927.194,202.615 927.527,199.948 928.5,197.5 Z"/></g>
<g><path style="opacity:0.358" fill="#caf1ea" d="M 956.5,196.5 C 956.5,200.5 956.5,204.5 956.5,208.5C 996.833,208.5 1037.17,208.5 1077.5,208.5C 1077.5,204.5 1077.5,200.5 1077.5,196.5C 1078.48,200.634 1078.82,204.968 1078.5,209.5C 1037.5,209.5 996.5,209.5 955.5,209.5C 955.182,204.968 955.515,200.634 956.5,196.5 Z"/></g>
<g><path style="opacity:0.996" fill="#74dac8" d="M 956.5,196.5 C 996.833,196.5 1037.17,196.5 1077.5,196.5C 1077.5,200.5 1077.5,204.5 1077.5,208.5C 1037.17,208.5 996.833,208.5 956.5,208.5C 956.5,204.5 956.5,200.5 956.5,196.5 Z"/></g>
<g><path style="opacity:0.698" fill="#a2e4d4" d="M 419.5,207.5 C 419.409,209.698 420.075,210.031 421.5,208.5C 421.262,210.404 420.262,211.738 418.5,212.5C 418.5,211.167 417.833,210.5 416.5,210.5C 417.167,209.167 418.167,208.167 419.5,207.5 Z"/></g>
<g><path style="opacity:1" fill="#62cfb5" d="M 427.5,207.5 C 428.991,210.091 431.325,211.091 434.5,210.5C 435.833,210.5 436.5,211.167 436.5,212.5C 433.146,214.113 430.146,213.78 427.5,211.5C 427.167,210.5 426.5,209.833 425.5,209.5C 425.334,205.154 425.501,200.821 426,196.5C 426.177,200.356 426.677,204.023 427.5,207.5 Z"/></g>
<g><path style="opacity:0.016" fill="#d5f4ee" d="M 523.5,208.5 C 524.391,209.11 525.391,209.443 526.5,209.5C 525.053,210.885 524.053,210.552 523.5,208.5 Z"/></g>
<g><path style="opacity:0.976" fill="#a7e6d7" d="M 603.5,206.5 C 603.131,208.993 603.797,209.66 605.5,208.5C 605.34,210.153 604.674,211.486 603.5,212.5C 603.5,211.167 602.833,210.5 601.5,210.5C 601.66,208.847 602.326,207.514 603.5,206.5 Z"/></g>
<g><path style="opacity:1" fill="#58cdb2" d="M 667.5,209.5 C 668.404,210.209 668.737,211.209 668.5,212.5C 667.391,212.443 666.391,212.11 665.5,211.5C 665.5,211.167 665.5,210.833 665.5,210.5C 665.409,208.302 666.075,207.969 667.5,209.5 Z"/></g>
<g><path style="opacity:0.898" fill="#6ed5bd" d="M 786.5,199.5 C 789.2,201.234 791.2,203.568 792.5,206.5C 793.006,208.105 793.673,208.439 794.5,207.5C 795.043,207.56 795.376,207.893 795.5,208.5C 794.388,209.265 793.721,210.265 793.5,211.5C 791.177,208.874 788.843,206.207 786.5,203.5C 786.5,202.833 786.5,202.167 786.5,201.5C 786.5,200.833 786.5,200.167 786.5,199.5 Z"/></g>
<g><path style="opacity:0.012" fill="#d9f5ef" d="M 833.5,208.5 C 832.947,210.552 831.947,210.885 830.5,209.5C 831.609,209.443 832.609,209.11 833.5,208.5 Z"/></g>
<g><path style="opacity:1" fill="#25c3a2" d="M 873.5,196.5 C 874.164,198.978 874.497,201.645 874.5,204.5C 874.478,207.59 873.812,210.257 872.5,212.5C 871.833,212.5 871.5,212.167 871.5,211.5C 873.258,206.728 873.925,201.728 873.5,196.5 Z"/></g>
<g><path style="opacity:0.543" fill="#afe9de" d="M 129.5,207.5 C 131.03,208.211 132.363,209.211 133.5,210.5C 150.167,210.5 166.833,210.5 183.5,210.5C 166.338,211.662 149.005,211.829 131.5,211C 130.695,209.887 130.028,208.721 129.5,207.5 Z"/></g>
<g><path style="opacity:1" fill="#80d9c4" d="M 421.5,200.5 C 419.797,199.34 419.131,200.007 419.5,202.5C 414.778,196.71 411.112,197.377 408.5,204.5C 409.183,209.186 411.849,211.186 416.5,210.5C 417.833,210.5 418.5,211.167 418.5,212.5C 409.217,214.72 405.051,211.053 406,201.5C 409.615,195.149 414.448,193.982 420.5,198C 421.252,198.671 421.586,199.504 421.5,200.5 Z"/></g>
<g><path style="opacity:0.004" fill="#d5f4ee" d="M 425.5,209.5 C 426.5,209.833 427.167,210.5 427.5,211.5C 426.167,211.5 425.5,210.833 425.5,209.5 Z"/></g>
<g><path style="opacity:0.251" fill="#c9f0e9" d="M 619.5,209.5 C 618.662,209.842 618.328,210.508 618.5,211.5C 618.167,211.5 617.833,211.5 617.5,211.5C 617.281,210.325 617.614,209.325 618.5,208.5C 619.107,208.624 619.44,208.957 619.5,209.5 Z"/></g>
<g><path style="opacity:1" fill="#79d7c0" d="M 628.5,196.5 C 630.031,197.925 629.698,198.591 627.5,198.5C 625.5,198.5 623.5,198.5 621.5,198.5C 621.5,199.833 621.5,201.167 621.5,202.5C 624.785,202.736 627.785,203.736 630.5,205.5C 632.333,210.938 630.333,213.604 624.5,213.5C 622.117,213.639 620.117,212.972 618.5,211.5C 618.328,210.508 618.662,209.842 619.5,209.5C 631.126,210.442 631.459,208.776 620.5,204.5C 618.919,202.858 618.253,200.858 618.5,198.5C 621.288,195.478 624.621,194.811 628.5,196.5 Z"/></g>
<g><path style="opacity:0.118" fill="#d0f2ec" d="M 735.5,205.5 C 735.5,207.167 735.5,208.833 735.5,210.5C 738.713,210.19 741.713,210.523 744.5,211.5C 741.167,211.5 737.833,211.5 734.5,211.5C 734.205,209.265 734.539,207.265 735.5,205.5 Z"/></g>
<g><path style="opacity:1" fill="#92dfcd" d="M 890.5,207.5 C 891.738,209.214 892.405,211.214 892.5,213.5C 889.858,213.512 888.525,212.179 888.5,209.5C 890.203,210.66 890.869,209.993 890.5,207.5 Z"/></g>
<g><path style="opacity:0.126" fill="#daf5f0" d="M 914.5,205.5 C 914.5,207.167 914.5,208.833 914.5,210.5C 917.713,210.19 920.713,210.523 923.5,211.5C 920.167,211.5 916.833,211.5 913.5,211.5C 913.205,209.265 913.539,207.265 914.5,205.5 Z"/></g>
<g><path style="opacity:1" fill="#7bd8c2" d="M 464.5,207.5 C 464.177,203.774 464.511,200.107 465.5,196.5C 466.167,200.647 466.834,204.647 467.5,208.5C 469.716,210.621 472.216,210.954 475,209.5C 476.122,204.898 476.622,200.232 476.5,195.5C 477.5,195.5 478.5,195.5 479.5,195.5C 479.666,199.846 479.499,204.179 479,208.5C 475.196,214.377 470.529,215.044 465,210.5C 464.517,209.552 464.351,208.552 464.5,207.5 Z"/></g>
<g><path style="opacity:1" fill="#33c6a7" d="M 601.5,210.5 C 602.833,210.5 603.5,211.167 603.5,212.5C 602.508,212.672 601.842,212.338 601.5,211.5C 601.5,211.167 601.5,210.833 601.5,210.5 Z"/></g>
<g><path style="opacity:0.227" fill="#cdf2eb" d="M 601.5,211.5 C 601.842,212.338 602.508,212.672 603.5,212.5C 602.614,213.776 601.614,213.776 600.5,212.5C 600.624,211.893 600.957,211.56 601.5,211.5 Z"/></g>
<g><path style="opacity:0.312" fill="#c9f1e8" d="M 645.5,210.5 C 646.478,210.811 647.145,211.478 647.5,212.5C 646.042,213.782 644.708,213.782 643.5,212.5C 644.833,212.5 645.5,211.833 645.5,210.5 Z"/></g>
<g><path style="opacity:0.29" fill="#c4efe7" d="M 665.5,211.5 C 666.391,212.11 667.391,212.443 668.5,212.5C 667.053,213.885 666.053,213.552 665.5,211.5 Z"/></g>
<g><path style="opacity:0.008" fill="#d5f4ed" d="M 814.5,212.5 C 811.167,213.833 807.833,213.833 804.5,212.5C 808.011,212.163 811.344,212.163 814.5,212.5 Z"/></g>
<g><path style="opacity:0.004" fill="#def6f1" d="M 908.5,204.5 C 909.477,207.287 909.81,210.287 909.5,213.5C 905.629,213.815 901.962,213.482 898.5,212.5C 901.681,212.258 904.681,212.258 907.5,212.5C 908.48,209.914 908.813,207.247 908.5,204.5 Z"/></g>
<g><path style="opacity:0.393" fill="#b9ece2" d="M 923.5,211.5 C 924.043,211.56 924.376,211.893 924.5,212.5C 920.016,213.811 915.683,213.811 911.5,212.5C 911.833,212.5 912.167,212.5 912.5,212.5C 916.371,212.815 920.038,212.482 923.5,211.5 Z"/></g>
<g><path style="opacity:0.318" fill="#c2efe5" d="M 937.5,210.5 C 939.93,211.653 939.93,212.653 937.5,213.5C 936.287,213.253 935.62,212.586 935.5,211.5C 936.925,213.031 937.591,212.698 937.5,210.5 Z"/></g>
</svg>
